<?xml version="1.0" encoding="UTF-8" standalone="no"?><!DOCTYPE svg PUBLIC "-//W3C//DTD SVG 1.1//EN" "http://www.w3.org/Graphics/SVG/1.1/DTD/svg11.dtd"><svg width="100%" height="100%" viewBox="0 0 596 420" version="1.1" xmlns="http://www.w3.org/2000/svg" xmlns:xlink="http://www.w3.org/1999/xlink" xml:space="preserve" xmlns:serif="http://www.serif.com/" style="fill-rule:evenodd;clip-rule:evenodd;stroke-linejoin:round;stroke-miterlimit:2;"><path d="M32.001,213.486c0,-0.769 0.105,-1.468 0.315,-2.097c0.209,-0.629 0.244,-1.432 0.104,-2.411c2.167,-4.613 4.631,-8.894 7.391,-12.842c2.761,-3.949 6.064,-7.426 9.908,-10.432c0.629,-0.489 1.135,-0.996 1.52,-1.52c0.384,-0.524 0.769,-1.031 1.153,-1.52c0.384,-0.489 0.821,-0.926 1.31,-1.31c0.49,-0.385 1.119,-0.647 1.887,-0.787c1.748,-2.027 3.844,-3.879 6.291,-5.556c2.446,-1.677 4.997,-3.285 7.653,-4.823c2.656,-1.537 5.329,-3.11 8.02,-4.717c2.691,-1.608 5.119,-3.355 7.286,-5.242c0.769,0.489 1.38,0.646 1.835,0.472c0.454,-0.175 0.926,-0.192 1.415,-0.053c0.629,1.328 1.45,2.254 2.464,2.778c1.013,0.525 2.061,1.049 3.145,1.573c1.083,0.524 2.096,1.153 3.04,1.887c0.943,0.734 1.66,1.73 2.149,2.988c-0.489,0 -0.716,0.175 -0.681,0.524c0.035,0.35 0.122,0.734 0.262,1.153c0.14,0.42 0.209,0.804 0.209,1.154c0,0.349 -0.314,0.524 -0.943,0.524c0,0.489 0.244,0.734 0.734,0.734c0.489,0 0.734,0.244 0.734,0.733c0,0.42 -0.088,0.752 -0.263,0.996c-0.174,0.245 -0.192,0.647 -0.052,1.206c-1.677,1.118 -3.547,2.184 -5.609,3.198c-2.061,1.013 -4.228,2.079 -6.5,3.197c-2.271,1.118 -4.577,2.324 -6.919,3.617c-2.341,1.293 -4.665,2.778 -6.971,4.455c-2.307,1.678 -4.631,3.53 -6.972,5.557c-2.341,2.027 -4.595,4.176 -6.762,6.447c-2.167,2.272 -4.194,4.613 -6.081,7.024c-1.887,2.412 -3.494,4.77 -4.822,7.077c0.14,0.349 0.332,0.664 0.576,0.943c0.245,0.28 0.437,0.594 0.577,0.944c2.656,0.14 5.137,0.122 7.443,-0.052c2.307,-0.175 4.613,-0.018 6.92,0.471c0.279,-0.209 0.454,-0.489 0.524,-0.838c0.07,-0.35 0.279,-0.594 0.629,-0.734c4.753,-0.49 9.191,-1.276 13.314,-2.359c4.124,-1.083 8.317,-2.184 12.581,-3.302c-1.258,-0.49 -2.377,-0.874 -3.355,-1.154c-0.419,-0.419 -0.402,-0.786 0.052,-1.1c0.455,-0.315 0.821,-0.647 1.101,-0.996c-1.118,-0.629 -2.044,-1.468 -2.778,-2.516c-0.734,-1.049 -1.171,-2.412 -1.311,-4.089c0.49,-0.419 0.734,-0.909 0.734,-1.468c0,-0.559 -0.244,-1.013 -0.734,-1.363c-0.349,-0.139 -0.559,-0.139 -0.629,0l-0.367,0.839c-0.104,0.14 -0.297,0.14 -0.576,0c0.07,-0.769 0.244,-1.398 0.524,-1.887c0.28,-0.489 0.489,-1.083 0.629,-1.782l8.702,-5.766c0.908,0.699 2.026,1.432 3.354,2.201c1.328,0.769 2.726,1.538 4.194,2.307c1.468,0.768 2.97,1.555 4.508,2.358c1.537,0.804 2.97,1.591 4.298,2.359c1.258,0.559 2.341,1.241 3.25,2.045c0.909,0.803 1.782,1.642 2.621,2.516c0.839,0.873 1.677,1.73 2.516,2.568c0.839,0.839 1.852,1.538 3.04,2.097c-0.139,1.118 -0.07,2.027 0.21,2.726c0.28,0.699 0.349,1.537 0.21,2.516c-1.328,2.376 -2.936,4.385 -4.823,6.028c-1.887,1.642 -4.001,3.058 -6.342,4.246c-2.342,1.188 -4.84,2.184 -7.496,2.988c-2.656,0.803 -5.382,1.572 -8.178,2.306c-2.795,0.734 -5.608,1.503 -8.439,2.306c-2.831,0.804 -5.609,1.73 -8.334,2.779c-1.189,0 -2.202,0.035 -3.041,0.104c-0.838,0.07 -1.642,0.175 -2.411,0.315c-0.769,0.14 -1.538,0.28 -2.306,0.419c-0.769,0.14 -1.608,0.245 -2.517,0.315c-0.349,-0.07 -0.576,0 -0.681,0.21c-0.105,0.209 -0.262,0.384 -0.472,0.524c-1.398,0.209 -2.656,0.314 -3.774,0.314l-2.83,0c-0.979,0 -1.992,0.14 -3.041,0.42c-1.048,0.279 -2.027,0.384 -2.935,0.314c-6.29,-0.279 -11.218,-2.516 -14.782,-6.709c-3.565,-4.194 -5.522,-9.96 -5.871,-17.299c0.07,-0.349 0,-0.576 -0.21,-0.681c-0.209,-0.105 -0.384,-0.227 -0.524,-0.367Z" style="fill-rule:nonzero;"/><path d="M175.208,179.309c0.07,0.489 0.088,0.856 0.053,1.101c-0.035,0.245 -0.07,0.472 -0.105,0.681c-0.035,0.21 -0.053,0.437 -0.053,0.682c0,0.245 0.07,0.611 0.21,1.101c-1.468,2.376 -3.162,4.001 -5.084,4.875c-1.922,0.873 -4.002,1.502 -6.238,1.887c-2.237,0.384 -4.526,0.786 -6.867,1.205c-2.341,0.42 -4.665,1.328 -6.972,2.726c-0.908,-0.349 -1.729,-0.349 -2.463,0c-0.734,0.35 -1.8,0.454 -3.198,0.315c-0.419,0.419 -0.943,0.716 -1.572,0.891c-0.629,0.174 -1.258,0.367 -1.887,0.576c0.279,0.629 0.401,1.276 0.366,1.94c-0.035,0.664 0.053,1.205 0.263,1.625c2.446,0.209 5.154,0.174 8.124,-0.105c2.971,-0.28 5.889,-0.454 8.754,-0.524c0.07,0.349 0.035,0.576 -0.105,0.681c-0.139,0.105 -0.174,0.297 -0.104,0.577c0.489,0.349 0.978,0.786 1.467,1.31c0.49,0.524 0.979,1.031 1.468,1.52c0.489,0.49 0.996,0.891 1.52,1.206c0.524,0.315 1.136,0.437 1.835,0.367c0.279,0.559 0.472,1.171 0.576,1.835c0.105,0.664 0.018,1.345 -0.262,2.044c-1.118,0.769 -2.236,1.555 -3.354,2.359c-1.119,0.803 -2.289,1.52 -3.513,2.149c-1.223,0.629 -2.516,1.136 -3.878,1.52c-1.363,0.384 -2.883,0.542 -4.561,0.472l-0.786,0c-0.175,0 -0.402,-0.105 -0.682,-0.315c-0.559,0.35 -1.345,0.455 -2.358,0.315c-1.014,-0.14 -1.8,-0.035 -2.359,0.314c-0.769,-0.349 -1.695,-0.506 -2.778,-0.471c-1.084,0.034 -2.045,-0.088 -2.883,-0.367c-1.119,1.467 -2.132,3.04 -3.041,4.717c-0.908,1.678 -1.712,3.46 -2.411,5.347c2.376,0.349 4.351,0.489 5.923,0.419c1.573,-0.07 3.058,-0.192 4.456,-0.367c1.398,-0.174 2.83,-0.349 4.298,-0.524c1.468,-0.175 3.32,-0.227 5.557,-0.157c1.397,-0.769 3.057,-1.276 4.979,-1.52c1.922,-0.245 3.687,-0.647 5.295,-1.206c0.559,0.21 1.048,0.577 1.467,1.101c0.42,0.524 0.822,1.013 1.206,1.468c0.384,0.454 0.786,0.856 1.206,1.205c0.419,0.35 0.943,0.49 1.572,0.42c0.28,0.279 0.472,0.611 0.577,0.996c0.105,0.384 0.192,0.751 0.262,1.1c0.07,0.35 0.192,0.647 0.367,0.891c0.174,0.245 0.471,0.332 0.891,0.263c-1.049,2.306 -2.254,4.071 -3.617,5.294c-1.363,1.223 -2.918,2.149 -4.665,2.778c-1.748,0.629 -3.687,1.118 -5.819,1.468c-2.131,0.349 -4.49,0.769 -7.076,1.258c-0.629,0.14 -1.153,0.122 -1.573,-0.053c-0.419,-0.174 -0.908,-0.262 -1.467,-0.262c-1.608,0.35 -3.53,0.664 -5.767,0.944c-2.236,0.279 -4.508,0.384 -6.814,0.314c-2.306,-0.07 -4.508,-0.367 -6.605,-0.891c-2.096,-0.524 -3.809,-1.45 -5.137,-2.778c-0.559,-0.489 -0.926,-1.066 -1.1,-1.73c-0.175,-0.664 -0.647,-1.17 -1.416,-1.52c-0.07,-0.909 -0.209,-1.922 -0.419,-3.04c-0.21,-1.118 -0.419,-2.289 -0.629,-3.512c-0.21,-1.223 -0.367,-2.429 -0.472,-3.617c-0.105,-1.188 -0.052,-2.272 0.157,-3.25c0.21,-1.048 0.647,-1.992 1.311,-2.831c0.664,-0.838 0.891,-1.747 0.681,-2.725c0.35,-0.07 0.559,-0.263 0.629,-0.577c0.07,-0.315 0.35,-0.437 0.839,-0.367c0.419,-1.258 0.874,-2.446 1.363,-3.564c0.489,-1.119 0.996,-2.202 1.52,-3.25c0.524,-1.049 1.048,-2.115 1.573,-3.198c0.524,-1.083 1.03,-2.289 1.52,-3.617c-0.979,-0.908 -1.695,-1.904 -2.149,-2.988c-0.455,-1.083 -0.787,-2.166 -0.996,-3.25c-0.21,-1.083 -0.385,-2.201 -0.525,-3.354c-0.139,-1.154 -0.384,-2.324 -0.733,-3.512c0.698,-1.049 1.555,-1.905 2.568,-2.569c1.013,-0.664 2.114,-1.205 3.302,-1.625c1.189,-0.419 2.482,-0.769 3.879,-1.048c1.398,-0.28 2.866,-0.594 4.404,-0.944c2.795,-0.908 5.294,-1.607 7.495,-2.096c2.202,-0.49 4.369,-0.892 6.5,-1.206c2.132,-0.315 4.351,-0.612 6.657,-0.891c2.307,-0.28 4.928,-0.699 7.863,-1.258c0.629,0.629 1.223,0.943 1.782,0.943c0.28,-0.629 0.612,-0.821 0.996,-0.576c0.385,0.244 0.542,0.052 0.472,-0.577c0.699,1.188 1.59,2.184 2.673,2.988c1.084,0.804 2.289,1.485 3.617,2.044Z" style="fill-rule:nonzero;"/><path d="M232.764,206.881c-0.07,0.839 0,1.643 0.209,2.412c0.21,0.768 0.472,1.52 0.787,2.254c0.314,0.733 0.611,1.485 0.891,2.254c0.279,0.768 0.489,1.537 0.629,2.306c0.14,0.978 0.14,2.044 0,3.198c-0.14,1.153 -0.385,2.271 -0.734,3.354c-0.349,1.084 -0.804,2.062 -1.363,2.936c-0.559,0.873 -1.223,1.52 -1.992,1.939c-0.978,1.258 -2.166,2.237 -3.564,2.936c-1.398,0.699 -2.691,1.537 -3.879,2.516c-0.769,0.489 -1.625,0.838 -2.569,1.048c-0.943,0.21 -1.904,0.419 -2.883,0.629c-0.769,0.419 -1.677,0.856 -2.725,1.311c-1.049,0.454 -2.132,0.873 -3.25,1.258c-1.119,0.384 -2.237,0.664 -3.355,0.838c-1.118,0.175 -2.097,0.227 -2.936,0.158c-2.096,0.768 -4.141,1.275 -6.133,1.52c-1.991,0.244 -4.315,0.087 -6.971,-0.472c-2.516,0.349 -4.84,0.245 -6.972,-0.315c-2.132,-0.559 -4.019,-1.45 -5.661,-2.673c-1.643,-1.223 -3.075,-2.691 -4.298,-4.403c-1.223,-1.712 -2.219,-3.512 -2.988,-5.399c-0.559,-3.984 -0.42,-7.601 0.419,-10.851c0.839,-3.25 2.044,-6.255 3.617,-9.016c1.573,-2.76 3.372,-5.311 5.399,-7.653c2.027,-2.341 3.984,-4.63 5.871,-6.867c0.419,0.14 0.751,0.123 0.996,-0.052c0.245,-0.175 0.472,-0.419 0.681,-0.734c0.21,-0.314 0.437,-0.611 0.682,-0.891c0.244,-0.28 0.541,-0.454 0.891,-0.524c0.489,-1.049 1.206,-1.835 2.149,-2.359c0.944,-0.524 1.695,-1.276 2.254,-2.254c0.629,-0.14 1.153,-0.349 1.573,-0.629c0.419,-0.28 0.821,-0.594 1.205,-0.944c0.385,-0.349 0.786,-0.681 1.206,-0.996c0.419,-0.314 0.908,-0.541 1.468,-0.681l0,-1.153c1.258,-0.559 2.184,-1.206 2.778,-1.94c0.594,-0.734 1.31,-1.625 2.149,-2.673c0.629,-0.07 1.136,-0.105 1.52,-0.105c0.384,0 0.961,-0.07 1.73,-0.21c0.559,-0.978 1.066,-1.712 1.52,-2.201c0.454,-0.489 1.136,-1.014 2.044,-1.573c0.839,0.42 1.765,0.699 2.778,0.839c1.014,0.14 1.905,0.594 2.674,1.363c0.07,0.699 0.279,1.24 0.629,1.625c0.349,0.384 0.734,0.734 1.153,1.048c0.419,0.315 0.821,0.647 1.206,0.996c0.384,0.35 0.646,0.839 0.786,1.468c0.279,0.07 0.472,0.035 0.577,-0.105c0.104,-0.14 0.297,-0.175 0.576,-0.105c0.21,0.979 0.454,1.625 0.734,1.94c0.28,0.314 0.559,0.926 0.839,1.834c-0.35,0.699 -0.612,1.416 -0.787,2.15c-0.174,0.733 -0.611,1.275 -1.31,1.625c-0.07,0.489 0.07,0.751 0.419,0.786c0.35,0.035 0.559,0.227 0.629,0.576c0.07,0.629 -0.035,1.084 -0.314,1.363c1.677,2.726 3.18,5.609 4.508,8.649c1.328,3.041 2.83,5.924 4.508,8.649Zm-13.105,9.96c0.28,-0.769 0.647,-1.398 1.101,-1.887c0.454,-0.489 0.716,-1.223 0.786,-2.202c-0.349,-0.559 -0.559,-0.996 -0.629,-1.31c-0.07,-0.315 -0.105,-0.821 -0.105,-1.52c-1.537,-2.167 -2.865,-4.491 -3.983,-6.972c-1.119,-2.481 -2.377,-4.805 -3.775,-6.972c-0.139,0.28 -0.384,0.559 -0.733,0.839c-0.35,0.28 -0.734,0.21 -1.154,-0.21c-0.139,0.559 -0.384,0.961 -0.733,1.206c-0.35,0.245 -0.734,0.349 -1.154,0.314c-0.419,-0.034 -0.856,-0.139 -1.31,-0.314c-0.454,-0.175 -0.856,-0.402 -1.206,-0.681c-2.027,1.607 -4.053,3.18 -6.08,4.717c-2.027,1.538 -3.844,3.32 -5.452,5.347c-0.279,0.14 -0.454,0.192 -0.524,0.157c-0.07,-0.035 -0.28,0.018 -0.629,0.157c-0.559,1.328 -1.241,2.534 -2.044,3.617c-0.804,1.084 -1.59,2.184 -2.359,3.303c-0.769,1.118 -1.433,2.306 -1.992,3.564c-0.559,1.258 -0.874,2.726 -0.944,4.403c1.189,0.979 2.586,1.573 4.194,1.782c1.607,0.21 3.267,0.245 4.98,0.105c1.712,-0.14 3.389,-0.367 5.032,-0.681c1.642,-0.315 3.162,-0.472 4.56,-0.472c2.936,-0.699 5.452,-1.625 7.548,-2.778c2.097,-1.153 4.299,-2.324 6.605,-3.512Z" style="fill-rule:nonzero;"/><path d="M282.771,238.542c-1.118,0.07 -2.499,0.035 -4.141,-0.105c-1.643,-0.14 -3.163,0.105 -4.56,0.734c-3.705,-0.14 -7.479,-0.594 -11.323,-1.363c-3.844,-0.769 -7.373,-1.712 -10.588,-2.83c-0.699,-0.769 -1.398,-1.486 -2.097,-2.15c-0.699,-0.663 -1.643,-1.135 -2.831,-1.415c-1.677,-1.328 -3.04,-2.953 -4.088,-4.875c-1.049,-1.922 -1.887,-3.966 -2.516,-6.133c-0.629,-2.166 -1.049,-4.385 -1.259,-6.657c-0.209,-2.271 -0.279,-4.455 -0.209,-6.552c1.048,-3.145 2.533,-5.854 4.455,-8.125c1.922,-2.271 3.897,-4.525 5.924,-6.762c0.908,-0.419 1.59,-0.856 2.044,-1.31c0.454,-0.455 0.944,-0.874 1.468,-1.258c0.524,-0.385 1.048,-0.769 1.572,-1.154c0.524,-0.384 0.996,-0.856 1.416,-1.415c1.467,-0.349 2.743,-0.856 3.826,-1.52c1.083,-0.664 2.149,-1.363 3.198,-2.097c1.048,-0.734 2.131,-1.415 3.25,-2.044c1.118,-0.629 2.411,-1.118 3.879,-1.468c0.559,-0.629 1.223,-1.136 1.991,-1.52c0.769,-0.384 1.556,-0.769 2.359,-1.153c0.804,-0.385 1.573,-0.787 2.307,-1.206c0.734,-0.419 1.31,-0.978 1.729,-1.677c0.35,0.559 0.839,0.751 1.468,0.576c0.629,-0.174 1.223,-0.367 1.782,-0.576c0.35,-0.07 0.647,0 0.892,0.209c0.244,0.21 0.471,0.42 0.681,0.629c0.21,0.21 0.402,0.332 0.577,0.367c0.174,0.035 0.332,-0.122 0.471,-0.471c0.35,0 0.455,0.174 0.315,0.524c-0.14,0.349 -0.245,0.594 -0.315,0.734c0.559,-0.07 1.031,0.052 1.416,0.367c0.384,0.314 0.996,0.506 1.834,0.576c0.28,0.35 0.35,0.612 0.21,0.786c-0.14,0.175 -0.21,0.472 -0.21,0.892c2.097,0.629 3.425,1.625 3.984,2.987c0.559,1.363 0.594,2.779 0.105,4.246c-0.489,1.468 -1.363,2.831 -2.621,4.089c-1.258,1.258 -2.621,2.097 -4.089,2.516c-3.354,0.909 -6.517,1.905 -9.487,2.988c-2.971,1.083 -5.399,2.673 -7.287,4.77c-1.677,0.489 -3.162,1.136 -4.455,1.939c-1.293,0.804 -2.516,1.713 -3.669,2.726c-1.154,1.014 -2.237,2.062 -3.25,3.145c-1.014,1.084 -2.08,2.149 -3.198,3.198c0.07,0.978 -0.087,1.73 -0.472,2.254c-0.384,0.524 -0.751,1.066 -1.1,1.625c0.139,1.048 0.384,1.974 0.733,2.778c0.35,0.804 0.734,1.59 1.154,2.359c4.612,1.398 9.522,2.271 14.729,2.621c5.207,0.349 10.432,0.559 15.673,0.629c0.49,0.699 1.066,1.345 1.73,1.939c0.664,0.594 1.276,1.223 1.835,1.887c0.559,0.664 1.013,1.398 1.363,2.202c0.349,0.804 0.419,1.8 0.209,2.988c-0.978,1.048 -2.061,2.009 -3.25,2.883c-1.188,0.873 -2.376,1.765 -3.564,2.673Z" style="fill-rule:nonzero;"/><path d="M349.762,229.526c-0.42,1.188 -1.031,2.394 -1.835,3.617c-0.804,1.223 -1.747,2.306 -2.831,3.25c-1.083,0.943 -2.288,1.73 -3.616,2.359c-1.328,0.629 -2.726,0.978 -4.194,1.048c-0.908,-0.21 -1.52,-0.437 -1.834,-0.681c-0.315,-0.245 -0.647,-0.472 -0.996,-0.682l-1.049,-0.629l-1.258,-0.524l0.419,-1.363c0.14,-0.559 0.105,-0.996 -0.104,-1.31c-0.21,-0.315 -0.629,-0.752 -1.258,-1.311c-0.21,-0.209 -0.42,-0.419 -0.629,-0.629c-0.21,-0.209 -0.385,-0.419 -0.525,-0.629l-1.782,-1.992l2.831,-0.734c1.747,-0.489 2.918,-1.118 3.512,-1.887c0.594,-0.768 0.821,-2.061 0.681,-3.879c-1.398,-0.279 -2.568,-0.314 -3.512,-0.104c-0.943,0.209 -1.904,0.454 -2.883,0.733c-1.258,0.35 -2.533,0.647 -3.826,0.892c-1.293,0.244 -2.709,0.366 -4.246,0.366c-0.559,0 -1.084,-0.017 -1.573,-0.052c-0.489,-0.035 -1.013,-0.087 -1.572,-0.157l-1.049,-0.21c-0.14,-0.769 -0.279,-1.205 -0.419,-1.31c-0.14,-0.105 -0.28,-0.227 -0.419,-0.367c-0.35,-0.35 -0.717,-0.821 -1.101,-1.416c-0.385,-0.594 -0.472,-1.345 -0.262,-2.254c-0.35,-0.629 -0.559,-1.258 -0.629,-1.887c-0.42,0.839 -0.734,1.713 -0.944,2.621l-0.419,1.049l-1.049,0.209c-0.139,0.07 -0.244,0.228 -0.314,0.472c-0.07,0.245 -0.105,0.437 -0.105,0.577l-0.524,1.782l-0.839,0.734c-0.14,0.629 -0.314,1.258 -0.524,1.887c-0.21,0.629 -0.419,1.223 -0.629,1.782c-0.349,0.909 -0.646,1.8 -0.891,2.673c-0.245,0.874 -0.332,1.73 -0.262,2.569l-0.42,1.153c-0.349,0.419 -0.733,0.751 -1.153,0.996c-0.419,0.245 -0.838,0.472 -1.258,0.682c-0.14,0.139 -0.332,0.262 -0.576,0.366c-0.245,0.105 -0.437,0.193 -0.577,0.263l-0.315,1.153l-1.258,0.209c-0.768,0.14 -1.31,0.245 -1.625,0.315c-0.314,0.07 -0.681,0.105 -1.1,0.105l-1.049,-0.105c-0.768,-0.629 -1.363,-1.136 -1.782,-1.52c-0.419,-0.385 -0.908,-0.752 -1.468,-1.101c-0.629,-0.839 -0.978,-1.468 -1.048,-1.887c-0.07,-0.419 -0.14,-0.804 -0.21,-1.153c-0.139,-0.42 -0.227,-0.769 -0.262,-1.049c-0.035,-0.279 -0.122,-0.489 -0.262,-0.629l-1.363,-1.258l1.153,-0.943l0.105,-1.782c1.398,-3.565 2.883,-6.99 4.456,-10.274c1.572,-3.285 3.197,-6.64 4.875,-10.065l3.25,-6.709c-0.07,-0.21 -0.105,-0.455 -0.105,-0.734c0,-0.28 0.07,-0.594 0.21,-0.944c0.768,-1.188 1.397,-2.254 1.887,-3.197c0.489,-0.944 0.978,-1.905 1.467,-2.883c0.559,-1.188 1.136,-2.342 1.73,-3.46c0.594,-1.118 1.346,-2.271 2.254,-3.46l1.678,-0.733c0.209,-0.07 0.454,-0.158 0.733,-0.262c0.28,-0.105 0.594,-0.158 0.944,-0.158l1.572,0.21c1.957,-0.909 3.67,-2.184 5.137,-3.827c1.468,-1.642 2.971,-3.616 4.508,-5.923l1.049,-1.468l1.363,0.839c0.349,0.21 0.838,0.402 1.467,0.577c0.629,0.174 1.293,0.367 1.992,0.576c1.258,0.28 2.447,0.594 3.565,0.944c1.118,0.349 2.027,0.873 2.726,1.572c0.419,1.119 0.664,1.957 0.733,2.516c0.07,0.56 0.175,1.119 0.315,1.678c0.21,1.188 0.402,2.376 0.577,3.564c0.174,1.188 0.297,2.516 0.366,3.984c0.35,1.188 0.647,2.359 0.892,3.512c0.244,1.153 0.471,2.324 0.681,3.512c0.349,1.678 0.699,3.303 1.048,4.875c0.35,1.573 0.804,3.058 1.363,4.456c0.559,0 0.909,0.035 1.049,0.105c0.349,-0.14 0.716,-0.245 1.1,-0.315c0.385,-0.07 0.822,-0.14 1.311,-0.21l1.153,-0.105l0.419,1.049c0.07,0.349 0.42,0.699 1.049,1.048c0.908,0.07 1.572,0.262 1.992,0.577c0.419,0.314 0.803,0.646 1.153,0.996c0.279,0.279 0.559,0.489 0.839,0.629l1.572,0.629l-0.839,1.572c-0.698,1.258 -1.694,2.464 -2.987,3.617c-1.293,1.153 -2.744,2.114 -4.351,2.883c0.07,0.42 0.122,0.821 0.157,1.206c0.035,0.384 0.122,0.786 0.262,1.206c0.21,1.188 0.385,2.411 0.524,3.669c0.14,1.258 0.14,2.551 0,3.879l-0.209,0.419Zm-30.298,-18.137c2.097,-0.139 4.001,-0.297 5.713,-0.471c1.713,-0.175 3.617,-0.472 5.714,-0.892c-0.489,-2.096 -1.013,-4.28 -1.572,-6.552c-0.56,-2.271 -1.154,-4.525 -1.783,-6.762l-0.629,1.049c-1.398,1.467 -2.743,3.11 -4.036,4.927c-1.293,1.817 -2.394,3.529 -3.302,5.137c-0.42,0.629 -0.839,1.258 -1.258,1.887c-0.42,0.629 -0.804,1.258 -1.154,1.887c0.42,-0.07 0.822,-0.105 1.206,-0.105c0.384,0 0.751,-0.035 1.101,-0.105Z" style="fill-rule:nonzero;"/><path d="M400.293,238.542c-1.118,0.07 -2.499,0.035 -4.141,-0.105c-1.642,-0.14 -3.163,0.105 -4.56,0.734c-3.705,-0.14 -7.479,-0.594 -11.323,-1.363c-3.844,-0.769 -7.373,-1.712 -10.588,-2.83c-0.699,-0.769 -1.398,-1.486 -2.097,-2.15c-0.699,-0.663 -1.642,-1.135 -2.831,-1.415c-1.677,-1.328 -3.04,-2.953 -4.088,-4.875c-1.049,-1.922 -1.887,-3.966 -2.516,-6.133c-0.629,-2.166 -1.049,-4.385 -1.258,-6.657c-0.21,-2.271 -0.28,-4.455 -0.21,-6.552c1.048,-3.145 2.534,-5.854 4.456,-8.125c1.922,-2.271 3.896,-4.525 5.923,-6.762c0.908,-0.419 1.59,-0.856 2.044,-1.31c0.454,-0.455 0.944,-0.874 1.468,-1.258c0.524,-0.385 1.048,-0.769 1.572,-1.154c0.525,-0.384 0.996,-0.856 1.416,-1.415c1.467,-0.349 2.743,-0.856 3.826,-1.52c1.084,-0.664 2.149,-1.363 3.198,-2.097c1.048,-0.734 2.131,-1.415 3.25,-2.044c1.118,-0.629 2.411,-1.118 3.879,-1.468c0.559,-0.629 1.223,-1.136 1.992,-1.52c0.768,-0.384 1.555,-0.769 2.358,-1.153c0.804,-0.385 1.573,-0.787 2.307,-1.206c0.734,-0.419 1.31,-0.978 1.73,-1.677c0.349,0.559 0.838,0.751 1.467,0.576c0.629,-0.174 1.223,-0.367 1.783,-0.576c0.349,-0.07 0.646,0 0.891,0.209c0.244,0.21 0.471,0.42 0.681,0.629c0.21,0.21 0.402,0.332 0.577,0.367c0.174,0.035 0.332,-0.122 0.472,-0.471c0.349,0 0.454,0.174 0.314,0.524c-0.14,0.349 -0.245,0.594 -0.314,0.734c0.559,-0.07 1.03,0.052 1.415,0.367c0.384,0.314 0.996,0.506 1.834,0.576c0.28,0.35 0.35,0.612 0.21,0.786c-0.14,0.175 -0.21,0.472 -0.21,0.892c2.097,0.629 3.425,1.625 3.984,2.987c0.559,1.363 0.594,2.779 0.105,4.246c-0.489,1.468 -1.363,2.831 -2.621,4.089c-1.258,1.258 -2.621,2.097 -4.088,2.516c-3.355,0.909 -6.518,1.905 -9.488,2.988c-2.971,1.083 -5.399,2.673 -7.286,4.77c-1.678,0.489 -3.163,1.136 -4.456,1.939c-1.293,0.804 -2.516,1.713 -3.669,2.726c-1.153,1.014 -2.237,2.062 -3.25,3.145c-1.014,1.084 -2.079,2.149 -3.198,3.198c0.07,0.978 -0.087,1.73 -0.471,2.254c-0.385,0.524 -0.752,1.066 -1.101,1.625c0.14,1.048 0.384,1.974 0.734,2.778c0.349,0.804 0.733,1.59 1.153,2.359c4.613,1.398 9.522,2.271 14.729,2.621c5.207,0.349 10.432,0.559 15.674,0.629c0.489,0.699 1.065,1.345 1.729,1.939c0.664,0.594 1.276,1.223 1.835,1.887c0.559,0.664 1.013,1.398 1.363,2.202c0.349,0.804 0.419,1.8 0.21,2.988c-0.979,1.048 -2.062,2.009 -3.25,2.883c-1.189,0.873 -2.377,1.765 -3.565,2.673Z" style="fill-rule:nonzero;"/><path d="M465.502,228.163c0.139,1.817 -0.07,3.32 -0.629,4.508c-0.559,1.188 -1.328,2.202 -2.307,3.04c-0.978,0.839 -2.097,1.503 -3.355,1.992c-1.258,0.49 -2.481,0.944 -3.669,1.363c-0.559,-0.349 -1.101,-0.716 -1.625,-1.101c-0.524,-0.384 -1.136,-0.681 -1.834,-0.891c-0.909,-1.677 -1.783,-3.162 -2.621,-4.455c-0.839,-1.293 -1.223,-2.778 -1.154,-4.456c0,-0.07 0.053,-0.454 0.158,-1.153l0.838,-4.665c0.105,-0.734 0.158,-1.136 0.158,-1.206c-1.608,0.14 -3.285,0.489 -5.033,1.049c-1.747,0.559 -3.442,1.223 -5.084,1.991c-1.643,0.769 -3.18,1.538 -4.613,2.307c-1.433,0.769 -2.603,1.433 -3.512,1.992c0,0.209 -0.14,0.716 -0.419,1.52c-0.28,0.804 -0.629,1.642 -1.049,2.516c-0.419,0.874 -0.873,1.66 -1.363,2.359c-0.489,0.699 -0.978,1.048 -1.467,1.048c0.07,0.21 0.174,0.42 0.314,0.629c0.14,0.21 0.14,0.489 0,0.839c-0.978,0.279 -1.852,0.646 -2.621,1.101c-0.769,0.454 -1.572,0.838 -2.411,1.153c-0.839,0.314 -1.747,0.472 -2.726,0.472c-0.978,0 -2.131,-0.35 -3.459,-1.049c0,-0.419 -0.175,-0.786 -0.525,-1.101c-0.349,-0.314 -0.716,-0.594 -1.1,-0.838c-0.385,-0.245 -0.717,-0.454 -0.996,-0.629c-0.28,-0.175 -0.42,-0.332 -0.42,-0.472c-0.349,0.07 -0.489,-0.175 -0.419,-0.734c0.07,-0.559 0.349,-0.699 0.839,-0.419c-0.769,-0.979 -1.241,-1.835 -1.416,-2.569c-0.174,-0.734 -0.576,-1.66 -1.205,-2.778c0.14,-0.14 0.262,-0.384 0.367,-0.734c0.105,-0.349 0.192,-0.664 0.262,-0.943c0.07,-0.28 0.175,-0.49 0.314,-0.629c0.14,-0.14 0.315,-0.105 0.525,0.105c-0.14,-0.629 -0.14,-1.154 0,-1.573c0.139,-0.419 0.279,-0.804 0.419,-1.153c0.14,-0.35 0.244,-0.699 0.314,-1.049c0.07,-0.349 -0.035,-0.733 -0.314,-1.153c1.118,-1.537 1.852,-3.197 2.201,-4.98c0.35,-1.782 0.56,-3.407 0.629,-4.874c0.49,-0.49 0.927,-1.189 1.311,-2.097c0.384,-0.909 0.681,-1.835 0.891,-2.778c0.21,-0.944 0.297,-1.852 0.262,-2.726c-0.035,-0.874 -0.157,-1.59 -0.367,-2.149c0.07,-0.35 0.454,-0.455 1.153,-0.315c0.42,-2.306 0.717,-4.91 0.892,-7.81c0.174,-2.901 0.471,-5.661 0.891,-8.282c0.419,-2.621 1.118,-4.928 2.096,-6.919c0.979,-1.992 2.551,-3.303 4.718,-3.932c0.419,1.468 0.961,2.761 1.625,3.879c0.664,1.118 1.398,2.184 2.202,3.198c0.803,1.013 1.607,2.044 2.411,3.092c0.804,1.049 1.555,2.237 2.254,3.565c-0.07,1.328 -0.21,2.865 -0.42,4.613c-0.209,1.747 -0.471,3.529 -0.786,5.346c-0.314,1.817 -0.629,3.565 -0.943,5.242c-0.315,1.677 -0.612,3.11 -0.891,4.298c0.069,0.35 0.262,0.56 0.576,0.629c0.315,0.07 0.367,0.385 0.157,0.944c1.678,-0.419 3.425,-0.804 5.242,-1.153c1.817,-0.35 3.635,-0.734 5.452,-1.153c1.817,-0.42 3.582,-0.892 5.294,-1.416c1.712,-0.524 3.302,-1.17 4.77,-1.939c0.35,-2.726 0.804,-5.452 1.363,-8.177c0.559,-2.726 0.629,-5.522 0.21,-8.387c0.349,-0.28 0.629,-0.629 0.838,-1.049c0.21,-0.419 0.559,-0.699 1.049,-0.839c-0.35,-1.327 -0.49,-2.725 -0.42,-4.193c0.07,-1.468 0.332,-2.866 0.787,-4.193c0.454,-1.328 1.118,-2.464 1.992,-3.408c0.873,-0.943 1.939,-1.555 3.197,-1.834c0.769,1.118 1.433,2.324 1.992,3.617c0.559,1.293 1.136,2.586 1.73,3.879c0.594,1.293 1.223,2.516 1.887,3.669c0.664,1.153 1.52,2.149 2.568,2.988c0.21,2.027 0.367,4.123 0.472,6.29c0.105,2.167 0.192,4.368 0.262,6.605c-0.559,2.655 -1.17,5.224 -1.834,7.705c-0.664,2.481 -1.136,5.12 -1.416,7.915c-0.489,0.559 -0.873,1.188 -1.153,1.887c-0.28,0.699 -0.559,1.416 -0.839,2.15c-0.279,0.733 -0.594,1.432 -0.943,2.096c-0.35,0.664 -0.769,1.241 -1.258,1.73c0.279,0.839 0.332,1.625 0.157,2.359c-0.175,0.734 0.018,1.625 0.577,2.673Z" style="fill-rule:nonzero;"/><path d="M477.243,229.316c-0.349,0.07 -0.664,-0.192 -0.943,-0.786c-0.28,-0.594 -0.594,-1.171 -0.944,-1.73l1.154,0c-0.49,-1.537 -0.612,-2.953 -0.367,-4.246c0.244,-1.293 0.541,-2.551 0.891,-3.774c0.349,-1.223 0.646,-2.411 0.891,-3.564c0.244,-1.153 0.122,-2.359 -0.367,-3.617c0.349,0.21 0.611,0.122 0.786,-0.262c0.175,-0.384 0.315,-0.874 0.42,-1.468c0.104,-0.594 0.139,-1.223 0.104,-1.887c-0.035,-0.664 -0.087,-1.205 -0.157,-1.625c0.909,-2.166 1.625,-4.403 2.149,-6.709c0.524,-2.307 0.996,-4.596 1.416,-6.867c0.419,-2.272 0.891,-4.473 1.415,-6.605c0.524,-2.132 1.205,-4.141 2.044,-6.028c0.979,-0.14 2.01,-0.018 3.093,0.367c1.083,0.384 1.8,0.856 2.149,1.415c2.167,-1.677 4.089,-3.704 5.766,-6.08c1.677,-2.377 3.372,-4.701 5.085,-6.972c1.712,-2.271 3.651,-4.281 5.818,-6.028c2.167,-1.747 4.858,-2.796 8.073,-3.145c1.677,1.188 3.564,2.463 5.661,3.826c2.096,1.363 3.809,3.058 5.137,5.085l3.25,2.201l0,1.573c0.978,0.909 1.799,1.974 2.463,3.198c0.664,1.223 1.258,2.516 1.783,3.879c0.524,1.362 1.03,2.743 1.52,4.141c0.489,1.397 1.048,2.69 1.677,3.879c-0.14,0.419 -0.192,0.786 -0.157,1.1c0.035,0.315 0.105,0.629 0.209,0.944c0.105,0.314 0.193,0.664 0.263,1.048c0.069,0.385 0.104,0.856 0.104,1.416c-0.279,3.704 -1.485,6.692 -3.616,8.963c-2.132,2.272 -4.718,4.124 -7.758,5.556c-3.041,1.433 -6.273,2.656 -9.698,3.67c-3.424,1.013 -6.535,2.114 -9.33,3.302c0,0.28 0.157,0.419 0.471,0.419c0.315,0 0.402,0.21 0.263,0.629c2.096,1.258 3.721,2.272 4.875,3.041c1.153,0.769 2.236,1.415 3.249,1.939c1.014,0.524 2.132,0.961 3.355,1.311c1.223,0.349 2.918,0.768 5.085,1.258c2.166,0.489 3.861,0.891 5.084,1.205c1.224,0.315 2.324,0.559 3.303,0.734c0.978,0.175 2.027,0.332 3.145,0.472c1.118,0.14 2.621,0.314 4.508,0.524c0.769,0.769 1.398,1.678 1.887,2.726c0.489,1.048 0.839,2.097 1.048,3.145c0.21,1.048 0.262,2.044 0.158,2.988c-0.105,0.943 -0.402,1.695 -0.892,2.254c0.07,0.279 0.263,0.402 0.577,0.367c0.315,-0.035 0.647,-0.018 0.996,0.052c-0.489,0.35 -0.909,0.769 -1.258,1.258c-0.35,0.489 -0.699,0.979 -1.048,1.468c-0.35,0.489 -0.752,0.943 -1.206,1.363c-0.454,0.419 -1.031,0.664 -1.73,0.734c-2.516,0.978 -5.731,1.013 -9.645,0.105c-3.914,-0.909 -8.911,-2.517 -14.992,-4.823c-3.005,-1.118 -5.451,-2.132 -7.338,-3.04c-1.887,-0.909 -3.53,-1.8 -4.927,-2.674c-1.398,-0.873 -2.691,-1.817 -3.879,-2.83c-1.189,-1.014 -2.551,-2.219 -4.089,-3.617l-0.734,0.839c-0.349,2.795 -0.891,5.067 -1.625,6.814c-0.734,1.747 -1.8,3.53 -3.197,5.347c-1.119,-0.21 -1.87,-0.105 -2.254,0.314c-0.385,0.42 -0.857,0.804 -1.416,1.153c-0.699,0.14 -1.223,0.123 -1.572,-0.052c-0.35,-0.175 -0.664,-0.367 -0.944,-0.577c-0.279,-0.209 -0.594,-0.419 -0.943,-0.629c-0.35,-0.209 -0.909,-0.279 -1.678,-0.209c-0.209,-0.629 -0.419,-1.241 -0.629,-1.835c-0.209,-0.594 -0.769,-0.856 -1.677,-0.786c0.21,-0.629 0.279,-1.171 0.21,-1.625c-0.07,-0.454 -0.175,-0.874 -0.315,-1.258c-0.14,-0.385 -0.262,-0.786 -0.367,-1.206c-0.105,-0.419 -0.052,-0.908 0.157,-1.468Zm35.016,-47.91c-0.909,1.328 -1.922,2.534 -3.04,3.617c-1.119,1.083 -2.219,2.201 -3.303,3.355c-1.083,1.153 -2.044,2.411 -2.883,3.774c-0.838,1.363 -1.433,2.988 -1.782,4.875c2.935,-0.35 6.011,-1.171 9.226,-2.464c3.215,-1.293 6.255,-2.534 9.12,-3.722c-0.349,-2.586 -1.258,-4.665 -2.725,-6.237c-1.468,-1.573 -3.006,-2.639 -4.613,-3.198Z" style="fill-rule:nonzero;"/></svg>