<?xml version="1.0" encoding="UTF-8" standalone="no"?><!DOCTYPE svg PUBLIC "-//W3C//DTD SVG 1.1//EN" "http://www.w3.org/Graphics/SVG/1.1/DTD/svg11.dtd"><svg width="100%" height="100%" viewBox="0 0 199 86" version="1.1" xmlns="http://www.w3.org/2000/svg" xmlns:xlink="http://www.w3.org/1999/xlink" xml:space="preserve" xmlns:serif="http://www.serif.com/" style="fill-rule:evenodd;clip-rule:evenodd;stroke-linecap:round;stroke-linejoin:round;stroke-miterlimit:1.5;"><ellipse id="Sea" cx="98.152" cy="42.535" rx="41.631" ry="40.66" style="fill:#006dff;"/><path id="Land" d="M118.931,38.137c-2.62,-0.762 1.756,4.484 -5.118,2.037c-4.191,-1.492 -2.761,-2.514 -2.292,-4.589c0.276,-1.224 -2.275,-3.1 -3.853,-3.37c-8.764,-1.5 -8.706,-2.75 -7.611,-1.786c-6.863,1.912 -8.054,1.957 -8.93,3.436l-6.583,7.21l-3.311,6.827l3.383,5.865l5.189,2.128l6.806,0.43l5.265,21.445l3.51,4.717l8.264,-4.782l7.266,-14.808l3.109,-7.363l4.542,-7.299l3.228,-4.482l-2.223,-4.063l-5.295,0.475c0,0 1.519,-0.032 -5.346,-2.028Zm-42.629,-29.799c3.286,4.937 2.029,7.548 2.029,7.548l-3.877,2.281l-2.134,2.06l-0.833,2.485l0.104,1.306l-2.397,0.342l-0.895,-2.569l0.008,-3.03l-1.05,0l-0.095,1.177l-0.521,2.059l-0.265,1.224l-1.105,1.247l-1.036,-1.722l-1.46,0.262l-0.783,2.111l0.595,2.322l-2.399,0.24l-0.386,3.035l-1.516,5.039l-0.096,5.12l2.825,5.263l2.126,5.718l3.923,6.947l0.665,4.607l-2.799,0.848l0.872,1.876l1.246,2.486l0.149,0.515l-0.159,0.29c-0.508,-0.182 -2.162,-2.381 -3.324,-4.131c-1.019,-1.364 -2.025,-3.085 -2.891,-4.917c-0.948,-1.73 -1.756,-3.564 -2.253,-5.399c-0.463,-1.115 -0.856,-2.548 -1.187,-4.41c-0.393,-1.562 -0.638,-3.637 -0.754,-5.73c-0.19,-1.713 -0.143,-3.89 0.087,-5.772c0.093,-2.129 0.619,-4.903 1.293,-7.15c0.568,-2.278 1.763,-5.466 3.358,-8.399c1.372,-2.459 3.165,-5.299 5.401,-7.543c1.269,-1.558 2.554,-2.814 3.965,-3.979l2.915,-2.285l2.152,-1.421l0.827,0.553m27.735,15.685l-2.758,3.158l-4.326,0.834l-3.285,-2.45l-1.095,-3.968l2.445,-2.764l3.504,-0.539l3.048,0.234l4.906,-1.608l1.233,-3.425l-0.345,-2.962l-0.528,-1.977l6.977,-0.594l3.039,-0.462l1.396,-0.897c2.176,1.237 4.381,2.758 6.617,4.577c1.294,1.078 2.495,2.205 3.601,3.384l2.684,3.075l-3.045,0.24l-8.75,1.083l-4.907,0.713l-5.453,-0.045l-2.792,2.322l-2.166,2.071Zm6.398,-4.331l3.67,1.655l3.001,4.478l0.328,4.396l-0.177,1.036l1.511,0.477l1.37,-1.815l0.056,-2.289l-0.058,-1.649l0.378,-1.742l1.623,0.473l0.213,-1.038l-1.443,-1.258l-2.342,-1.368l-0.848,-1.866l-3.684,0.399l-3.598,0.111Zm9.361,-0.845l2.848,1.347l0.819,3.209l0.867,4.132l3.858,1.411l1.329,-3.206l-1.491,-2.038l-0.052,-1.271l1.852,-0.332l3.249,-1.632c-0.903,-1.425 -1.072,-1.713 -2.129,-3.011l-11.15,1.391Z" style="fill:#046500;stroke:#006dff;stroke-width:0.24px;"/><path id="Air" d="M131.135,35.377c3.27,0.358 5.852,0.654 7.694,0.114c1.176,-0.345 -3.919,-13.548 -4.846,-13.278l-1.601,-1.238l-10.398,-2.93c-6.953,-0.124 -9.011,2.618 -7.109,7.678c0,0 3.541,6.111 7.198,7.394c5.511,0.4 7.787,1.259 9.062,2.26Zm-0.453,19.184l-7.563,-2.397l-8.908,-8.727l-17.56,0.155l-6.316,4.783l-8.377,3.986l-3.62,-7.115l6.728,-4.954l-3.588,-4.362l-6.696,1.223l-5.489,8.887l1.655,7.923l3.627,6.81l-2.355,3.225l2.446,5.98l13.219,1.306l7.219,-5.484l10.914,-6.254l5.021,8.347l5.803,3.665l10.01,-2.182l6.159,-10.102l-2.329,-4.713Zm-28.056,-32.112c-3.565,-0.153 -10.034,-0.061 -10.034,-0.061l-2.618,-4.298l-0.081,-5.719l-3.174,-2.8l-6.489,-0.13l-5.19,4.21l1.324,5.24l-5.273,4.182l-6.813,2.982c-3.883,3.505 -3.649,5.645 1.802,6.057c5.87,-3.45 10.834,-8.881 14.233,-7.599c5.122,0.4 7.237,1.259 8.422,2.261l6.049,2.463l5.755,0.228l3.405,-2.208c0,0 2.246,-4.656 -1.318,-4.808Z" style="fill:#dfdfdf;fill-opacity:0.83;stroke:#e0e0e0;stroke-opacity:0.84;stroke-width:0.24px;"/><path d="M18.265,45.466c0,-0.238 0.033,-0.454 0.098,-0.648c0.065,-0.195 0.075,-0.444 0.032,-0.747c0.671,-1.427 1.433,-2.752 2.287,-3.974c0.855,-1.222 1.877,-2.298 3.066,-3.228c0.195,-0.152 0.352,-0.308 0.471,-0.471c0.119,-0.162 0.238,-0.319 0.357,-0.47c0.119,-0.152 0.254,-0.287 0.405,-0.406c0.152,-0.119 0.346,-0.2 0.584,-0.243c0.541,-0.627 1.19,-1.2 1.947,-1.72c0.757,-0.519 1.546,-1.016 2.368,-1.492c0.822,-0.476 1.65,-0.962 2.482,-1.46c0.833,-0.497 1.585,-1.038 2.255,-1.622c0.238,0.151 0.427,0.2 0.568,0.146c0.14,-0.054 0.286,-0.06 0.438,-0.016c0.195,0.411 0.449,0.697 0.762,0.859c0.314,0.163 0.638,0.325 0.974,0.487c0.335,0.162 0.649,0.357 0.94,0.584c0.292,0.227 0.514,0.535 0.666,0.925c-0.152,0 -0.222,0.054 -0.211,0.162c0.011,0.108 0.038,0.227 0.081,0.357c0.043,0.13 0.065,0.249 0.065,0.357c0,0.108 -0.098,0.162 -0.292,0.162c0,0.151 0.075,0.227 0.227,0.227c0.151,0 0.227,0.076 0.227,0.227c0,0.13 -0.027,0.233 -0.081,0.308c-0.054,0.076 -0.06,0.2 -0.016,0.373c-0.52,0.347 -1.098,0.676 -1.736,0.99c-0.638,0.314 -1.309,0.643 -2.012,0.99c-0.703,0.346 -1.416,0.719 -2.141,1.119c-0.725,0.4 -1.444,0.86 -2.158,1.379c-0.713,0.519 -1.432,1.092 -2.157,1.719c-0.725,0.627 -1.422,1.293 -2.093,1.996c-0.67,0.703 -1.297,1.427 -1.881,2.173c-0.584,0.747 -1.082,1.476 -1.493,2.19c0.043,0.108 0.103,0.206 0.179,0.292c0.075,0.087 0.135,0.184 0.178,0.292c0.822,0.044 1.59,0.038 2.304,-0.016c0.713,-0.054 1.427,-0.005 2.141,0.146c0.086,-0.065 0.14,-0.151 0.162,-0.26c0.022,-0.108 0.087,-0.183 0.195,-0.227c1.471,-0.151 2.844,-0.394 4.12,-0.73c1.276,-0.335 2.574,-0.676 3.893,-1.022c-0.389,-0.151 -0.735,-0.27 -1.038,-0.356c-0.13,-0.13 -0.124,-0.244 0.016,-0.341c0.141,-0.097 0.255,-0.2 0.341,-0.308c-0.346,-0.195 -0.633,-0.455 -0.86,-0.779c-0.227,-0.324 -0.362,-0.746 -0.405,-1.265c0.151,-0.13 0.227,-0.282 0.227,-0.455c0,-0.173 -0.076,-0.313 -0.227,-0.421c-0.108,-0.044 -0.173,-0.044 -0.195,0l-0.113,0.259c-0.033,0.043 -0.092,0.043 -0.179,0c0.022,-0.238 0.076,-0.432 0.162,-0.584c0.087,-0.151 0.152,-0.335 0.195,-0.551l2.693,-1.785c0.281,0.217 0.627,0.444 1.038,0.682c0.411,0.238 0.844,0.475 1.298,0.713c0.454,0.238 0.919,0.482 1.395,0.73c0.476,0.249 0.919,0.492 1.33,0.73c0.389,0.173 0.725,0.384 1.006,0.633c0.281,0.249 0.551,0.508 0.811,0.779c0.26,0.27 0.519,0.535 0.779,0.795c0.259,0.259 0.573,0.475 0.941,0.648c-0.044,0.346 -0.022,0.628 0.064,0.844c0.087,0.216 0.109,0.476 0.065,0.779c-0.411,0.735 -0.908,1.357 -1.492,1.865c-0.584,0.508 -1.238,0.946 -1.963,1.314c-0.725,0.368 -1.498,0.676 -2.32,0.925c-0.822,0.249 -1.665,0.486 -2.53,0.714c-0.866,0.227 -1.736,0.465 -2.612,0.713c-0.876,0.249 -1.736,0.536 -2.579,0.86c-0.368,0 -0.682,0.011 -0.941,0.033c-0.26,0.021 -0.509,0.054 -0.746,0.097c-0.238,0.043 -0.476,0.086 -0.714,0.13c-0.238,0.043 -0.498,0.075 -0.779,0.097c-0.108,-0.022 -0.178,0 -0.211,0.065c-0.032,0.065 -0.081,0.119 -0.146,0.162c-0.432,0.065 -0.822,0.097 -1.168,0.097l-0.876,0c-0.303,0 -0.616,0.044 -0.941,0.13c-0.324,0.087 -0.627,0.119 -0.908,0.098c-1.947,-0.087 -3.472,-0.779 -4.575,-2.077c-1.103,-1.298 -1.708,-3.082 -1.817,-5.353c0.022,-0.108 0,-0.179 -0.064,-0.211c-0.065,-0.032 -0.119,-0.07 -0.163,-0.114Z" style="fill-rule:nonzero;"/><path d="M62.584,34.89c0.021,0.151 0.027,0.265 0.016,0.34c-0.011,0.076 -0.022,0.146 -0.032,0.211c-0.011,0.065 -0.017,0.135 -0.017,0.211c0,0.076 0.022,0.189 0.065,0.341c-0.454,0.735 -0.978,1.238 -1.573,1.508c-0.595,0.271 -1.239,0.465 -1.931,0.584c-0.692,0.119 -1.4,0.244 -2.125,0.373c-0.724,0.13 -1.444,0.411 -2.157,0.844c-0.281,-0.108 -0.536,-0.108 -0.763,0c-0.227,0.108 -0.557,0.141 -0.989,0.097c-0.13,0.13 -0.292,0.222 -0.487,0.276c-0.195,0.054 -0.389,0.114 -0.584,0.179c0.087,0.194 0.124,0.394 0.114,0.6c-0.011,0.205 0.016,0.373 0.081,0.503c0.757,0.065 1.595,0.054 2.514,-0.033c0.919,-0.086 1.822,-0.14 2.709,-0.162c0.022,0.108 0.011,0.178 -0.032,0.211c-0.043,0.032 -0.054,0.092 -0.033,0.178c0.152,0.108 0.303,0.244 0.455,0.406c0.151,0.162 0.302,0.319 0.454,0.47c0.151,0.152 0.308,0.276 0.47,0.373c0.162,0.098 0.352,0.136 0.568,0.114c0.086,0.173 0.146,0.362 0.178,0.568c0.033,0.205 0.006,0.416 -0.081,0.632c-0.346,0.238 -0.692,0.482 -1.038,0.73c-0.346,0.249 -0.708,0.471 -1.087,0.666c-0.378,0.194 -0.778,0.351 -1.2,0.47c-0.422,0.119 -0.892,0.168 -1.412,0.146l-0.243,0c-0.054,0 -0.124,-0.032 -0.211,-0.097c-0.173,0.108 -0.416,0.14 -0.73,0.097c-0.313,-0.043 -0.557,-0.011 -0.73,0.097c-0.238,-0.108 -0.524,-0.157 -0.859,-0.146c-0.336,0.011 -0.633,-0.027 -0.893,-0.113c-0.346,0.454 -0.659,0.941 -0.941,1.46c-0.281,0.519 -0.529,1.07 -0.746,1.654c0.736,0.108 1.347,0.152 1.833,0.13c0.487,-0.022 0.947,-0.059 1.379,-0.113c0.433,-0.055 0.876,-0.109 1.33,-0.163c0.455,-0.054 1.028,-0.07 1.72,-0.048c0.433,-0.238 0.946,-0.395 1.541,-0.471c0.595,-0.075 1.141,-0.2 1.638,-0.373c0.173,0.065 0.325,0.179 0.455,0.341c0.129,0.162 0.254,0.313 0.373,0.454c0.119,0.141 0.243,0.265 0.373,0.373c0.13,0.108 0.292,0.152 0.487,0.13c0.086,0.086 0.146,0.189 0.178,0.308c0.032,0.119 0.059,0.233 0.081,0.341c0.022,0.108 0.06,0.2 0.114,0.276c0.054,0.075 0.146,0.102 0.275,0.081c-0.324,0.713 -0.697,1.26 -1.119,1.638c-0.422,0.379 -0.903,0.665 -1.444,0.86c-0.54,0.195 -1.141,0.346 -1.8,0.454c-0.66,0.108 -1.39,0.238 -2.19,0.389c-0.195,0.044 -0.357,0.038 -0.487,-0.016c-0.13,-0.054 -0.281,-0.081 -0.454,-0.081c-0.498,0.108 -1.092,0.206 -1.785,0.292c-0.692,0.087 -1.395,0.119 -2.108,0.097c-0.714,-0.021 -1.396,-0.113 -2.044,-0.275c-0.649,-0.163 -1.179,-0.449 -1.59,-0.86c-0.173,-0.152 -0.287,-0.33 -0.341,-0.535c-0.054,-0.206 -0.2,-0.363 -0.438,-0.471c-0.021,-0.281 -0.065,-0.595 -0.13,-0.941c-0.064,-0.346 -0.129,-0.708 -0.194,-1.087c-0.065,-0.378 -0.114,-0.751 -0.146,-1.119c-0.033,-0.368 -0.016,-0.703 0.048,-1.006c0.065,-0.324 0.2,-0.616 0.406,-0.876c0.205,-0.259 0.276,-0.54 0.211,-0.843c0.108,-0.022 0.173,-0.081 0.195,-0.179c0.021,-0.097 0.108,-0.135 0.259,-0.113c0.13,-0.39 0.27,-0.757 0.422,-1.103c0.151,-0.346 0.308,-0.682 0.47,-1.006c0.162,-0.325 0.325,-0.654 0.487,-0.99c0.162,-0.335 0.319,-0.708 0.47,-1.119c-0.302,-0.281 -0.524,-0.589 -0.665,-0.925c-0.14,-0.335 -0.243,-0.67 -0.308,-1.005c-0.065,-0.336 -0.119,-0.682 -0.162,-1.039c-0.043,-0.356 -0.119,-0.719 -0.227,-1.086c0.216,-0.325 0.481,-0.59 0.795,-0.795c0.313,-0.206 0.654,-0.373 1.022,-0.503c0.367,-0.13 0.767,-0.238 1.2,-0.325c0.433,-0.086 0.887,-0.184 1.363,-0.292c0.865,-0.281 1.638,-0.497 2.319,-0.649c0.682,-0.151 1.352,-0.275 2.012,-0.373c0.66,-0.097 1.346,-0.189 2.06,-0.275c0.714,-0.087 1.525,-0.217 2.433,-0.39c0.195,0.195 0.379,0.292 0.552,0.292c0.086,-0.194 0.189,-0.254 0.308,-0.178c0.119,0.075 0.168,0.016 0.146,-0.179c0.216,0.368 0.492,0.676 0.827,0.925c0.336,0.249 0.709,0.46 1.12,0.633Z" style="fill-rule:nonzero;"/><path d="M80.396,43.422c-0.022,0.26 0,0.509 0.064,0.747c0.065,0.238 0.146,0.47 0.244,0.697c0.097,0.227 0.189,0.46 0.276,0.698c0.086,0.238 0.151,0.476 0.194,0.713c0.043,0.303 0.043,0.633 0,0.99c-0.043,0.357 -0.119,0.703 -0.227,1.038c-0.108,0.335 -0.249,0.638 -0.422,0.909c-0.173,0.27 -0.378,0.47 -0.616,0.6c-0.303,0.389 -0.671,0.692 -1.103,0.908c-0.433,0.217 -0.833,0.476 -1.201,0.779c-0.238,0.151 -0.503,0.26 -0.795,0.324c-0.292,0.065 -0.589,0.13 -0.892,0.195c-0.238,0.13 -0.519,0.265 -0.843,0.406c-0.325,0.14 -0.66,0.27 -1.006,0.389c-0.346,0.119 -0.692,0.205 -1.038,0.26c-0.346,0.054 -0.649,0.07 -0.909,0.048c-0.649,0.238 -1.281,0.395 -1.898,0.471c-0.616,0.075 -1.335,0.027 -2.157,-0.146c-0.779,0.108 -1.498,0.075 -2.158,-0.098c-0.659,-0.173 -1.243,-0.449 -1.752,-0.827c-0.508,-0.379 -0.951,-0.833 -1.33,-1.363c-0.378,-0.53 -0.687,-1.087 -0.925,-1.671c-0.173,-1.232 -0.129,-2.352 0.13,-3.358c0.26,-1.005 0.633,-1.935 1.12,-2.79c0.486,-0.854 1.043,-1.644 1.67,-2.368c0.628,-0.725 1.233,-1.433 1.817,-2.125c0.13,0.043 0.233,0.038 0.309,-0.016c0.075,-0.054 0.146,-0.13 0.21,-0.228c0.065,-0.097 0.136,-0.189 0.211,-0.275c0.076,-0.087 0.168,-0.141 0.276,-0.162c0.151,-0.325 0.373,-0.568 0.665,-0.73c0.292,-0.163 0.525,-0.395 0.698,-0.698c0.194,-0.043 0.357,-0.108 0.486,-0.195c0.13,-0.086 0.255,-0.184 0.373,-0.292c0.119,-0.108 0.244,-0.211 0.374,-0.308c0.129,-0.097 0.281,-0.168 0.454,-0.211l0,-0.357c0.389,-0.173 0.676,-0.373 0.86,-0.6c0.183,-0.227 0.405,-0.503 0.665,-0.827c0.194,-0.022 0.351,-0.033 0.47,-0.033c0.119,0 0.298,-0.021 0.535,-0.065c0.173,-0.302 0.33,-0.529 0.471,-0.681c0.14,-0.151 0.351,-0.313 0.633,-0.487c0.259,0.13 0.546,0.217 0.859,0.26c0.314,0.043 0.59,0.184 0.828,0.422c0.021,0.216 0.086,0.384 0.194,0.503c0.108,0.119 0.227,0.227 0.357,0.324c0.13,0.097 0.254,0.2 0.373,0.308c0.119,0.108 0.2,0.26 0.244,0.455c0.086,0.021 0.146,0.01 0.178,-0.033c0.032,-0.043 0.092,-0.054 0.178,-0.032c0.065,0.302 0.141,0.503 0.228,0.6c0.086,0.097 0.173,0.286 0.259,0.568c-0.108,0.216 -0.189,0.438 -0.243,0.665c-0.054,0.227 -0.189,0.394 -0.406,0.503c-0.021,0.151 0.022,0.232 0.13,0.243c0.108,0.011 0.173,0.07 0.195,0.178c0.021,0.195 -0.011,0.336 -0.098,0.422c0.519,0.844 0.985,1.736 1.395,2.677c0.411,0.941 0.876,1.833 1.396,2.676Zm-4.056,3.083c0.087,-0.238 0.2,-0.433 0.341,-0.584c0.14,-0.152 0.221,-0.379 0.243,-0.682c-0.108,-0.173 -0.173,-0.308 -0.195,-0.405c-0.021,-0.098 -0.032,-0.254 -0.032,-0.471c-0.476,-0.67 -0.887,-1.389 -1.233,-2.157c-0.346,-0.768 -0.735,-1.487 -1.168,-2.158c-0.043,0.087 -0.119,0.173 -0.227,0.26c-0.108,0.086 -0.227,0.065 -0.357,-0.065c-0.043,0.173 -0.119,0.297 -0.227,0.373c-0.108,0.076 -0.227,0.108 -0.357,0.097c-0.13,-0.01 -0.265,-0.043 -0.405,-0.097c-0.141,-0.054 -0.265,-0.124 -0.374,-0.211c-0.627,0.498 -1.254,0.984 -1.881,1.46c-0.628,0.476 -1.19,1.028 -1.687,1.655c-0.087,0.043 -0.141,0.059 -0.163,0.048c-0.021,-0.01 -0.086,0.006 -0.194,0.049c-0.173,0.411 -0.384,0.784 -0.633,1.119c-0.249,0.336 -0.492,0.676 -0.73,1.022c-0.238,0.346 -0.443,0.714 -0.616,1.103c-0.173,0.39 -0.271,0.844 -0.292,1.363c0.367,0.303 0.8,0.487 1.297,0.552c0.498,0.065 1.012,0.075 1.541,0.032c0.53,-0.043 1.05,-0.113 1.558,-0.211c0.508,-0.097 0.979,-0.146 1.411,-0.146c0.909,-0.216 1.687,-0.503 2.336,-0.86c0.649,-0.356 1.33,-0.719 2.044,-1.086Z" style="fill-rule:nonzero;"/><path d="M95.871,53.221c-0.346,0.021 -0.773,0.01 -1.281,-0.033c-0.509,-0.043 -0.979,0.033 -1.412,0.227c-1.146,-0.043 -2.314,-0.184 -3.503,-0.422c-1.19,-0.238 -2.282,-0.53 -3.277,-0.876c-0.217,-0.238 -0.433,-0.459 -0.649,-0.665c-0.216,-0.205 -0.508,-0.351 -0.876,-0.438c-0.519,-0.411 -0.941,-0.914 -1.265,-1.508c-0.325,-0.595 -0.584,-1.228 -0.779,-1.898c-0.195,-0.671 -0.325,-1.358 -0.389,-2.06c-0.065,-0.703 -0.087,-1.379 -0.065,-2.028c0.324,-0.974 0.784,-1.812 1.379,-2.515c0.594,-0.703 1.205,-1.4 1.833,-2.092c0.281,-0.13 0.492,-0.265 0.632,-0.406c0.141,-0.14 0.292,-0.27 0.454,-0.389c0.163,-0.119 0.325,-0.238 0.487,-0.357c0.162,-0.119 0.308,-0.265 0.438,-0.438c0.454,-0.108 0.849,-0.265 1.184,-0.47c0.336,-0.206 0.665,-0.422 0.99,-0.649c0.324,-0.227 0.66,-0.438 1.006,-0.633c0.346,-0.195 0.746,-0.346 1.2,-0.454c0.173,-0.195 0.379,-0.352 0.616,-0.471c0.238,-0.119 0.482,-0.238 0.73,-0.357c0.249,-0.119 0.487,-0.243 0.714,-0.373c0.227,-0.129 0.406,-0.302 0.536,-0.519c0.108,0.173 0.259,0.233 0.454,0.179c0.194,-0.054 0.378,-0.114 0.551,-0.179c0.108,-0.021 0.2,0 0.276,0.065c0.076,0.065 0.146,0.13 0.211,0.195c0.065,0.065 0.124,0.103 0.178,0.113c0.055,0.011 0.103,-0.038 0.146,-0.146c0.109,0 0.141,0.054 0.098,0.163c-0.043,0.108 -0.076,0.183 -0.098,0.227c0.173,-0.022 0.319,0.016 0.438,0.113c0.119,0.098 0.309,0.157 0.568,0.179c0.087,0.108 0.108,0.189 0.065,0.243c-0.043,0.054 -0.065,0.146 -0.065,0.276c0.649,0.194 1.06,0.503 1.233,0.924c0.173,0.422 0.184,0.86 0.033,1.314c-0.152,0.455 -0.422,0.876 -0.812,1.266c-0.389,0.389 -0.811,0.649 -1.265,0.778c-1.038,0.282 -2.017,0.59 -2.936,0.925c-0.919,0.335 -1.671,0.827 -2.255,1.476c-0.519,0.152 -0.979,0.352 -1.379,0.6c-0.4,0.249 -0.778,0.53 -1.135,0.844c-0.357,0.314 -0.692,0.638 -1.006,0.973c-0.314,0.336 -0.644,0.665 -0.99,0.99c0.022,0.303 -0.027,0.535 -0.146,0.697c-0.119,0.163 -0.232,0.33 -0.34,0.503c0.043,0.325 0.119,0.611 0.227,0.86c0.108,0.249 0.227,0.492 0.357,0.73c1.427,0.433 2.947,0.703 4.558,0.811c1.611,0.108 3.228,0.173 4.85,0.195c0.152,0.216 0.33,0.416 0.536,0.6c0.205,0.184 0.394,0.379 0.568,0.584c0.173,0.205 0.313,0.433 0.421,0.681c0.108,0.249 0.13,0.557 0.065,0.925c-0.303,0.324 -0.638,0.622 -1.006,0.892c-0.367,0.271 -0.735,0.546 -1.103,0.828Z" style="fill-rule:nonzero;"/><path d="M116.603,50.43c-0.13,0.368 -0.319,0.741 -0.568,1.12c-0.248,0.378 -0.54,0.713 -0.876,1.005c-0.335,0.292 -0.708,0.536 -1.119,0.73c-0.411,0.195 -0.844,0.303 -1.298,0.325c-0.281,-0.065 -0.47,-0.135 -0.568,-0.211c-0.097,-0.076 -0.2,-0.146 -0.308,-0.211l-0.324,-0.195l-0.39,-0.162l0.13,-0.422c0.043,-0.173 0.033,-0.308 -0.032,-0.405c-0.065,-0.097 -0.195,-0.233 -0.39,-0.406c-0.064,-0.065 -0.129,-0.129 -0.194,-0.194c-0.065,-0.065 -0.119,-0.13 -0.162,-0.195l-0.552,-0.616l0.876,-0.228c0.541,-0.151 0.903,-0.346 1.087,-0.584c0.184,-0.237 0.254,-0.638 0.211,-1.2c-0.433,-0.087 -0.795,-0.097 -1.087,-0.032c-0.292,0.064 -0.59,0.14 -0.892,0.227c-0.39,0.108 -0.784,0.2 -1.185,0.275c-0.4,0.076 -0.838,0.114 -1.314,0.114c-0.173,0 -0.335,-0.005 -0.486,-0.016c-0.152,-0.011 -0.314,-0.027 -0.487,-0.049l-0.324,-0.065c-0.044,-0.238 -0.087,-0.373 -0.13,-0.405c-0.043,-0.033 -0.087,-0.071 -0.13,-0.114c-0.108,-0.108 -0.222,-0.254 -0.34,-0.438c-0.119,-0.184 -0.146,-0.416 -0.082,-0.697c-0.108,-0.195 -0.173,-0.39 -0.194,-0.584c-0.13,0.259 -0.227,0.53 -0.292,0.811l-0.13,0.324l-0.324,0.065c-0.044,0.022 -0.076,0.07 -0.098,0.146c-0.021,0.076 -0.032,0.135 -0.032,0.178l-0.162,0.552l-0.26,0.227c-0.043,0.195 -0.097,0.389 -0.162,0.584c-0.065,0.195 -0.13,0.379 -0.195,0.552c-0.108,0.281 -0.2,0.557 -0.276,0.827c-0.075,0.27 -0.102,0.535 -0.081,0.795l-0.13,0.357c-0.108,0.13 -0.227,0.232 -0.356,0.308c-0.13,0.076 -0.26,0.146 -0.39,0.211c-0.043,0.043 -0.103,0.081 -0.178,0.113c-0.076,0.033 -0.135,0.06 -0.179,0.082l-0.097,0.356l-0.389,0.065c-0.238,0.044 -0.406,0.076 -0.503,0.098c-0.098,0.021 -0.211,0.032 -0.341,0.032l-0.324,-0.032c-0.238,-0.195 -0.422,-0.352 -0.552,-0.471c-0.13,-0.119 -0.281,-0.232 -0.454,-0.34c-0.195,-0.26 -0.303,-0.455 -0.325,-0.584c-0.021,-0.13 -0.043,-0.249 -0.064,-0.357c-0.044,-0.13 -0.071,-0.238 -0.081,-0.325c-0.011,-0.086 -0.038,-0.151 -0.082,-0.194l-0.421,-0.39l0.357,-0.292l0.032,-0.551c0.433,-1.103 0.892,-2.163 1.379,-3.18c0.486,-1.016 0.989,-2.055 1.508,-3.114l1.006,-2.077c-0.021,-0.065 -0.032,-0.14 -0.032,-0.227c0,-0.087 0.021,-0.184 0.065,-0.292c0.238,-0.368 0.432,-0.698 0.584,-0.99c0.151,-0.292 0.302,-0.589 0.454,-0.892c0.173,-0.367 0.351,-0.724 0.535,-1.07c0.184,-0.346 0.417,-0.703 0.698,-1.071l0.519,-0.227c0.065,-0.022 0.14,-0.049 0.227,-0.081c0.086,-0.033 0.184,-0.049 0.292,-0.049l0.487,0.065c0.605,-0.281 1.135,-0.676 1.589,-1.184c0.455,-0.509 0.92,-1.12 1.395,-1.833l0.325,-0.455l0.422,0.26c0.108,0.065 0.259,0.124 0.454,0.178c0.195,0.055 0.4,0.114 0.616,0.179c0.39,0.086 0.757,0.184 1.103,0.292c0.346,0.108 0.628,0.27 0.844,0.487c0.13,0.346 0.205,0.605 0.227,0.778c0.022,0.173 0.054,0.346 0.097,0.519c0.065,0.368 0.125,0.736 0.179,1.103c0.054,0.368 0.092,0.779 0.113,1.233c0.109,0.368 0.2,0.73 0.276,1.087c0.076,0.357 0.146,0.719 0.211,1.087c0.108,0.519 0.216,1.022 0.324,1.509c0.109,0.486 0.249,0.946 0.422,1.379c0.173,0 0.281,0.01 0.325,0.032c0.108,-0.043 0.221,-0.076 0.34,-0.097c0.119,-0.022 0.255,-0.044 0.406,-0.065l0.357,-0.033l0.13,0.325c0.021,0.108 0.129,0.216 0.324,0.324c0.281,0.022 0.487,0.081 0.616,0.179c0.13,0.097 0.249,0.2 0.357,0.308c0.087,0.086 0.173,0.151 0.26,0.195l0.487,0.194l-0.26,0.487c-0.216,0.389 -0.525,0.762 -0.925,1.119c-0.4,0.357 -0.849,0.654 -1.346,0.892c0.022,0.13 0.038,0.255 0.049,0.373c0.01,0.119 0.037,0.244 0.081,0.374c0.065,0.367 0.119,0.746 0.162,1.135c0.043,0.389 0.043,0.79 0,1.201l-0.065,0.129Zm-9.376,-5.612c0.649,-0.044 1.238,-0.092 1.768,-0.146c0.53,-0.055 1.119,-0.146 1.768,-0.276c-0.151,-0.649 -0.314,-1.325 -0.487,-2.028c-0.173,-0.703 -0.356,-1.401 -0.551,-2.093l-0.195,0.325c-0.432,0.454 -0.849,0.962 -1.249,1.525c-0.4,0.562 -0.741,1.092 -1.022,1.589c-0.13,0.195 -0.259,0.39 -0.389,0.584c-0.13,0.195 -0.249,0.39 -0.357,0.584c0.13,-0.021 0.254,-0.032 0.373,-0.032c0.119,0 0.233,-0.011 0.341,-0.032Z" style="fill-rule:nonzero;"/><path d="M132.241,53.221c-0.346,0.021 -0.773,0.01 -1.282,-0.033c-0.508,-0.043 -0.978,0.033 -1.411,0.227c-1.146,-0.043 -2.314,-0.184 -3.504,-0.422c-1.189,-0.238 -2.282,-0.53 -3.277,-0.876c-0.216,-0.238 -0.432,-0.459 -0.649,-0.665c-0.216,-0.205 -0.508,-0.351 -0.875,-0.438c-0.52,-0.411 -0.941,-0.914 -1.266,-1.508c-0.324,-0.595 -0.584,-1.228 -0.778,-1.898c-0.195,-0.671 -0.325,-1.358 -0.39,-2.06c-0.065,-0.703 -0.086,-1.379 -0.065,-2.028c0.325,-0.974 0.784,-1.812 1.379,-2.515c0.595,-0.703 1.206,-1.4 1.833,-2.092c0.281,-0.13 0.492,-0.265 0.633,-0.406c0.141,-0.14 0.292,-0.27 0.454,-0.389c0.162,-0.119 0.325,-0.238 0.487,-0.357c0.162,-0.119 0.308,-0.265 0.438,-0.438c0.454,-0.108 0.849,-0.265 1.184,-0.47c0.335,-0.206 0.665,-0.422 0.99,-0.649c0.324,-0.227 0.659,-0.438 1.005,-0.633c0.346,-0.195 0.747,-0.346 1.201,-0.454c0.173,-0.195 0.378,-0.352 0.616,-0.471c0.238,-0.119 0.481,-0.238 0.73,-0.357c0.249,-0.119 0.487,-0.243 0.714,-0.373c0.227,-0.129 0.405,-0.302 0.535,-0.519c0.108,0.173 0.26,0.233 0.454,0.179c0.195,-0.054 0.379,-0.114 0.552,-0.179c0.108,-0.021 0.2,0 0.276,0.065c0.075,0.065 0.146,0.13 0.211,0.195c0.065,0.065 0.124,0.103 0.178,0.113c0.054,0.011 0.103,-0.038 0.146,-0.146c0.108,0 0.141,0.054 0.097,0.163c-0.043,0.108 -0.075,0.183 -0.097,0.227c0.173,-0.022 0.319,0.016 0.438,0.113c0.119,0.098 0.308,0.157 0.568,0.179c0.086,0.108 0.108,0.189 0.065,0.243c-0.043,0.054 -0.065,0.146 -0.065,0.276c0.649,0.194 1.06,0.503 1.233,0.924c0.173,0.422 0.184,0.86 0.032,1.314c-0.151,0.455 -0.422,0.876 -0.811,1.266c-0.389,0.389 -0.811,0.649 -1.265,0.778c-1.038,0.282 -2.017,0.59 -2.936,0.925c-0.92,0.335 -1.671,0.827 -2.255,1.476c-0.519,0.152 -0.979,0.352 -1.379,0.6c-0.4,0.249 -0.779,0.53 -1.136,0.844c-0.357,0.314 -0.692,0.638 -1.005,0.973c-0.314,0.336 -0.644,0.665 -0.99,0.99c0.022,0.303 -0.027,0.535 -0.146,0.697c-0.119,0.163 -0.232,0.33 -0.341,0.503c0.044,0.325 0.119,0.611 0.227,0.86c0.109,0.249 0.228,0.492 0.357,0.73c1.428,0.433 2.947,0.703 4.559,0.811c1.611,0.108 3.228,0.173 4.85,0.195c0.152,0.216 0.33,0.416 0.535,0.6c0.206,0.184 0.395,0.379 0.568,0.584c0.173,0.205 0.314,0.433 0.422,0.681c0.108,0.249 0.13,0.557 0.065,0.925c-0.303,0.324 -0.638,0.622 -1.006,0.892c-0.368,0.271 -0.735,0.546 -1.103,0.828Z" style="fill-rule:nonzero;"/><path d="M152.421,50.009c0.043,0.562 -0.021,1.027 -0.194,1.395c-0.174,0.367 -0.411,0.681 -0.714,0.941c-0.303,0.259 -0.649,0.465 -1.038,0.616c-0.39,0.151 -0.768,0.292 -1.136,0.422c-0.173,-0.108 -0.341,-0.222 -0.503,-0.341c-0.162,-0.119 -0.351,-0.211 -0.568,-0.276c-0.281,-0.519 -0.551,-0.978 -0.811,-1.379c-0.259,-0.4 -0.378,-0.859 -0.357,-1.378c0,-0.022 0.017,-0.141 0.049,-0.357l0.26,-1.444c0.032,-0.227 0.048,-0.352 0.048,-0.373c-0.497,0.043 -1.016,0.151 -1.557,0.324c-0.541,0.173 -1.065,0.379 -1.574,0.617c-0.508,0.238 -0.984,0.476 -1.427,0.713c-0.444,0.238 -0.806,0.444 -1.087,0.617c0,0.065 -0.043,0.222 -0.13,0.47c-0.086,0.249 -0.194,0.509 -0.324,0.779c-0.13,0.27 -0.271,0.514 -0.422,0.73c-0.151,0.216 -0.303,0.324 -0.454,0.324c0.021,0.065 0.054,0.13 0.097,0.195c0.043,0.065 0.043,0.151 0,0.26c-0.303,0.086 -0.573,0.2 -0.811,0.34c-0.238,0.141 -0.487,0.26 -0.746,0.357c-0.26,0.097 -0.541,0.146 -0.844,0.146c-0.303,0 -0.659,-0.108 -1.07,-0.324c0,-0.13 -0.054,-0.244 -0.163,-0.341c-0.108,-0.097 -0.221,-0.184 -0.34,-0.259c-0.119,-0.076 -0.222,-0.141 -0.308,-0.195c-0.087,-0.054 -0.13,-0.103 -0.13,-0.146c-0.108,0.021 -0.152,-0.054 -0.13,-0.227c0.022,-0.173 0.108,-0.217 0.26,-0.13c-0.238,-0.303 -0.384,-0.568 -0.438,-0.795c-0.055,-0.227 -0.179,-0.514 -0.374,-0.86c0.044,-0.043 0.082,-0.119 0.114,-0.227c0.032,-0.108 0.059,-0.205 0.081,-0.292c0.022,-0.086 0.054,-0.151 0.097,-0.194c0.044,-0.044 0.098,-0.033 0.163,0.032c-0.044,-0.195 -0.044,-0.357 0,-0.487c0.043,-0.129 0.086,-0.248 0.129,-0.357c0.044,-0.108 0.076,-0.216 0.098,-0.324c0.021,-0.108 -0.011,-0.227 -0.098,-0.357c0.346,-0.476 0.574,-0.989 0.682,-1.541c0.108,-0.552 0.173,-1.054 0.194,-1.509c0.152,-0.151 0.287,-0.367 0.406,-0.648c0.119,-0.282 0.211,-0.568 0.276,-0.86c0.065,-0.292 0.092,-0.573 0.081,-0.844c-0.011,-0.27 -0.049,-0.492 -0.114,-0.665c0.022,-0.108 0.141,-0.14 0.357,-0.097c0.13,-0.714 0.222,-1.52 0.276,-2.417c0.054,-0.898 0.146,-1.752 0.276,-2.563c0.129,-0.811 0.346,-1.525 0.649,-2.142c0.302,-0.616 0.789,-1.022 1.46,-1.216c0.129,0.454 0.297,0.854 0.502,1.2c0.206,0.346 0.433,0.676 0.682,0.99c0.249,0.313 0.497,0.632 0.746,0.957c0.249,0.324 0.481,0.692 0.698,1.103c-0.022,0.411 -0.065,0.887 -0.13,1.427c-0.065,0.541 -0.146,1.093 -0.244,1.655c-0.097,0.562 -0.194,1.103 -0.292,1.622c-0.097,0.519 -0.189,0.963 -0.275,1.33c0.021,0.109 0.081,0.173 0.178,0.195c0.097,0.022 0.114,0.119 0.049,0.292c0.519,-0.13 1.06,-0.249 1.622,-0.357c0.562,-0.108 1.125,-0.227 1.687,-0.357c0.562,-0.129 1.109,-0.275 1.638,-0.438c0.53,-0.162 1.022,-0.362 1.477,-0.6c0.108,-0.843 0.248,-1.687 0.421,-2.531c0.173,-0.843 0.195,-1.708 0.065,-2.595c0.108,-0.087 0.195,-0.195 0.26,-0.324c0.065,-0.13 0.173,-0.217 0.324,-0.26c-0.108,-0.411 -0.151,-0.844 -0.129,-1.298c0.021,-0.454 0.102,-0.887 0.243,-1.298c0.14,-0.411 0.346,-0.762 0.616,-1.054c0.271,-0.292 0.601,-0.481 0.99,-0.568c0.238,0.346 0.443,0.719 0.616,1.12c0.173,0.4 0.352,0.8 0.536,1.2c0.183,0.4 0.378,0.779 0.584,1.136c0.205,0.356 0.47,0.665 0.794,0.924c0.065,0.627 0.114,1.276 0.146,1.947c0.033,0.67 0.06,1.352 0.082,2.044c-0.173,0.822 -0.363,1.617 -0.568,2.384c-0.206,0.768 -0.352,1.585 -0.438,2.45c-0.152,0.173 -0.271,0.368 -0.357,0.584c-0.087,0.216 -0.173,0.438 -0.26,0.665c-0.086,0.227 -0.183,0.443 -0.292,0.649c-0.108,0.205 -0.238,0.384 -0.389,0.535c0.087,0.26 0.103,0.503 0.049,0.73c-0.054,0.227 0.005,0.503 0.178,0.828Z" style="fill-rule:nonzero;"/><path d="M156.055,50.365c-0.108,0.022 -0.206,-0.059 -0.292,-0.243c-0.087,-0.184 -0.184,-0.362 -0.292,-0.535l0.357,0c-0.152,-0.476 -0.189,-0.914 -0.114,-1.314c0.076,-0.4 0.168,-0.79 0.276,-1.168c0.108,-0.379 0.2,-0.746 0.276,-1.103c0.075,-0.357 0.038,-0.73 -0.114,-1.12c0.108,0.065 0.189,0.038 0.244,-0.081c0.054,-0.119 0.097,-0.27 0.129,-0.454c0.033,-0.184 0.044,-0.378 0.033,-0.584c-0.011,-0.205 -0.027,-0.373 -0.049,-0.503c0.281,-0.67 0.503,-1.362 0.665,-2.076c0.162,-0.714 0.308,-1.422 0.438,-2.125c0.13,-0.703 0.276,-1.385 0.438,-2.044c0.162,-0.66 0.373,-1.282 0.633,-1.866c0.303,-0.043 0.622,-0.005 0.957,0.114c0.335,0.119 0.557,0.265 0.665,0.438c0.671,-0.519 1.265,-1.147 1.784,-1.882c0.52,-0.735 1.044,-1.455 1.574,-2.158c0.53,-0.702 1.13,-1.324 1.801,-1.865c0.67,-0.541 1.503,-0.865 2.498,-0.973c0.519,0.367 1.103,0.762 1.752,1.184c0.649,0.422 1.179,0.946 1.59,1.573l1.005,0.682l0,0.486c0.303,0.282 0.557,0.611 0.763,0.99c0.205,0.378 0.389,0.779 0.551,1.2c0.163,0.422 0.319,0.849 0.471,1.282c0.151,0.432 0.324,0.833 0.519,1.2c-0.043,0.13 -0.06,0.244 -0.049,0.341c0.011,0.097 0.033,0.195 0.065,0.292c0.033,0.097 0.06,0.205 0.081,0.324c0.022,0.119 0.033,0.265 0.033,0.438c-0.087,1.147 -0.46,2.071 -1.12,2.774c-0.659,0.703 -1.46,1.276 -2.401,1.72c-0.94,0.443 -1.941,0.822 -3.001,1.135c-1.059,0.314 -2.022,0.655 -2.887,1.022c0,0.087 0.049,0.13 0.146,0.13c0.097,0 0.124,0.065 0.081,0.195c0.649,0.389 1.152,0.703 1.509,0.941c0.357,0.238 0.692,0.438 1.005,0.6c0.314,0.162 0.66,0.297 1.039,0.405c0.378,0.109 0.903,0.238 1.573,0.39c0.671,0.151 1.195,0.276 1.574,0.373c0.378,0.097 0.719,0.173 1.022,0.227c0.302,0.054 0.627,0.103 0.973,0.146c0.346,0.043 0.811,0.097 1.395,0.162c0.238,0.238 0.433,0.519 0.584,0.844c0.151,0.324 0.26,0.649 0.324,0.973c0.065,0.325 0.082,0.633 0.049,0.925c-0.032,0.292 -0.124,0.524 -0.276,0.697c0.022,0.087 0.081,0.125 0.179,0.114c0.097,-0.011 0.2,-0.006 0.308,0.016c-0.151,0.108 -0.281,0.238 -0.389,0.389c-0.108,0.152 -0.217,0.303 -0.325,0.455c-0.108,0.151 -0.232,0.292 -0.373,0.421c-0.14,0.13 -0.319,0.206 -0.535,0.227c-0.779,0.303 -1.774,0.314 -2.985,0.033c-1.211,-0.281 -2.758,-0.779 -4.64,-1.492c-0.93,-0.347 -1.687,-0.66 -2.271,-0.941c-0.584,-0.282 -1.092,-0.557 -1.524,-0.828c-0.433,-0.27 -0.833,-0.562 -1.201,-0.876c-0.368,-0.313 -0.789,-0.686 -1.265,-1.119l-0.227,0.26c-0.108,0.865 -0.276,1.568 -0.503,2.108c-0.227,0.541 -0.557,1.093 -0.99,1.655c-0.346,-0.065 -0.578,-0.032 -0.697,0.097c-0.119,0.13 -0.265,0.249 -0.438,0.357c-0.217,0.044 -0.379,0.038 -0.487,-0.016c-0.108,-0.054 -0.205,-0.113 -0.292,-0.178c-0.086,-0.065 -0.184,-0.13 -0.292,-0.195c-0.108,-0.065 -0.281,-0.087 -0.519,-0.065c-0.065,-0.195 -0.13,-0.384 -0.195,-0.568c-0.065,-0.184 -0.238,-0.265 -0.519,-0.243c0.065,-0.195 0.087,-0.362 0.065,-0.503c-0.022,-0.141 -0.054,-0.27 -0.097,-0.389c-0.043,-0.119 -0.081,-0.244 -0.114,-0.373c-0.032,-0.13 -0.016,-0.282 0.049,-0.455Zm10.836,-14.826c-0.281,0.41 -0.595,0.784 -0.941,1.119c-0.346,0.335 -0.686,0.681 -1.022,1.038c-0.335,0.357 -0.632,0.746 -0.892,1.168c-0.259,0.422 -0.443,0.925 -0.551,1.509c0.908,-0.108 1.86,-0.363 2.855,-0.763c0.995,-0.4 1.935,-0.784 2.822,-1.152c-0.108,-0.8 -0.389,-1.443 -0.843,-1.93c-0.455,-0.487 -0.93,-0.816 -1.428,-0.989Z" style="fill-rule:nonzero;"/></svg>