<?xml version="1.0" encoding="UTF-8" standalone="no"?><!DOCTYPE svg PUBLIC "-//W3C//DTD SVG 1.1//EN" "http://www.w3.org/Graphics/SVG/1.1/DTD/svg11.dtd"><svg width="100%" height="100%" viewBox="0 0 298 86" version="1.1" xmlns="http://www.w3.org/2000/svg" xmlns:xlink="http://www.w3.org/1999/xlink" xml:space="preserve" xmlns:serif="http://www.serif.com/" style="fill-rule:evenodd;clip-rule:evenodd;stroke-linejoin:round;stroke-miterlimit:2;"><path d="M2.022,47.916c0,-0.388 0.053,-0.741 0.158,-1.058c0.106,-0.318 0.124,-0.723 0.053,-1.217c1.094,-2.328 2.337,-4.488 3.73,-6.481c1.394,-1.993 3.06,-3.748 5,-5.265c0.318,-0.247 0.573,-0.502 0.767,-0.767c0.194,-0.264 0.388,-0.52 0.582,-0.767c0.194,-0.247 0.415,-0.467 0.662,-0.661c0.246,-0.194 0.564,-0.327 0.952,-0.397c0.882,-1.023 1.94,-1.958 3.174,-2.804c1.235,-0.847 2.522,-1.658 3.863,-2.434c1.34,-0.776 2.689,-1.57 4.047,-2.381c1.358,-0.811 2.584,-1.693 3.677,-2.645c0.388,0.247 0.697,0.326 0.926,0.238c0.229,-0.088 0.467,-0.097 0.714,-0.027c0.318,0.671 0.732,1.138 1.244,1.402c0.511,0.265 1.04,0.53 1.587,0.794c0.547,0.265 1.058,0.582 1.534,0.952c0.476,0.371 0.838,0.873 1.085,1.508c-0.247,0 -0.362,0.088 -0.344,0.265c0.018,0.176 0.062,0.37 0.132,0.582c0.071,0.211 0.106,0.405 0.106,0.582c0,0.176 -0.159,0.264 -0.476,0.264c0,0.247 0.123,0.371 0.37,0.371c0.247,0 0.371,0.123 0.371,0.37c0,0.212 -0.045,0.379 -0.133,0.503c-0.088,0.123 -0.097,0.326 -0.026,0.608c-0.847,0.564 -1.79,1.102 -2.831,1.614c-1.04,0.511 -2.134,1.049 -3.28,1.613c-1.146,0.565 -2.31,1.173 -3.492,1.826c-1.182,0.652 -2.354,1.402 -3.518,2.248c-1.164,0.847 -2.337,1.782 -3.519,2.804c-1.181,1.023 -2.319,2.108 -3.412,3.254c-1.094,1.147 -2.117,2.328 -3.069,3.545c-0.952,1.217 -1.763,2.407 -2.434,3.571c0.071,0.177 0.168,0.335 0.291,0.477c0.124,0.141 0.221,0.299 0.291,0.476c1.341,0.07 2.593,0.061 3.757,-0.027c1.164,-0.088 2.328,-0.009 3.492,0.238c0.141,-0.105 0.229,-0.247 0.264,-0.423c0.036,-0.176 0.141,-0.3 0.318,-0.37c2.398,-0.247 4.638,-0.644 6.719,-1.191c2.081,-0.546 4.197,-1.102 6.349,-1.666c-0.635,-0.247 -1.199,-0.441 -1.693,-0.582c-0.212,-0.212 -0.203,-0.397 0.026,-0.556c0.23,-0.159 0.415,-0.326 0.556,-0.502c-0.565,-0.318 -1.032,-0.741 -1.402,-1.27c-0.371,-0.529 -0.591,-1.217 -0.662,-2.064c0.247,-0.211 0.371,-0.458 0.371,-0.74c0,-0.282 -0.124,-0.512 -0.371,-0.688c-0.176,-0.071 -0.282,-0.071 -0.317,0l-0.185,0.423c-0.053,0.071 -0.15,0.071 -0.291,0c0.035,-0.388 0.123,-0.705 0.264,-0.952c0.141,-0.247 0.247,-0.547 0.318,-0.9l4.391,-2.91c0.459,0.353 1.023,0.724 1.693,1.112c0.67,0.388 1.376,0.775 2.116,1.163c0.741,0.388 1.5,0.785 2.276,1.191c0.776,0.406 1.499,0.802 2.169,1.19c0.635,0.283 1.181,0.626 1.64,1.032c0.458,0.406 0.899,0.829 1.323,1.27c0.423,0.441 0.846,0.873 1.269,1.296c0.424,0.423 0.935,0.776 1.535,1.058c-0.071,0.565 -0.036,1.023 0.106,1.376c0.141,0.353 0.176,0.776 0.105,1.27c-0.67,1.199 -1.481,2.213 -2.433,3.042c-0.953,0.829 -2.02,1.543 -3.201,2.143c-1.182,0.599 -2.443,1.102 -3.783,1.507c-1.341,0.406 -2.716,0.794 -4.127,1.164c-1.411,0.371 -2.831,0.759 -4.259,1.164c-1.429,0.406 -2.831,0.873 -4.206,1.402c-0.6,0 -1.111,0.018 -1.535,0.053c-0.423,0.036 -0.829,0.089 -1.216,0.159c-0.388,0.071 -0.776,0.141 -1.164,0.212c-0.388,0.07 -0.812,0.123 -1.27,0.158c-0.177,-0.035 -0.291,0 -0.344,0.106c-0.053,0.106 -0.132,0.194 -0.238,0.265c-0.706,0.106 -1.341,0.158 -1.905,0.158l-1.428,0c-0.494,0 -1.006,0.071 -1.535,0.212c-0.529,0.141 -1.023,0.194 -1.481,0.159c-3.175,-0.141 -5.661,-1.27 -7.46,-3.386c-1.799,-2.117 -2.787,-5.026 -2.963,-8.73c0.035,-0.176 0,-0.291 -0.106,-0.344c-0.106,-0.053 -0.194,-0.115 -0.264,-0.185Z" style="fill-rule:nonzero;"/><path d="M47.734,58.656c-0.282,-0.282 -0.485,-0.617 -0.609,-1.005c-0.123,-0.388 -0.414,-0.706 -0.872,-0.952c-0.071,-0.529 -0.168,-1.138 -0.291,-1.826c-0.124,-0.688 -0.247,-1.393 -0.371,-2.116c-0.123,-0.723 -0.211,-1.446 -0.264,-2.169c-0.053,-0.723 -0.027,-1.385 0.079,-1.984c0.071,-0.318 0.185,-0.618 0.344,-0.9c0.159,-0.282 0.317,-0.555 0.476,-0.82c0.159,-0.264 0.282,-0.538 0.37,-0.82c0.089,-0.282 0.097,-0.564 0.027,-0.846c0.212,-0.036 0.344,-0.15 0.397,-0.344c0.053,-0.194 0.22,-0.256 0.502,-0.185c0.247,-0.776 0.512,-1.5 0.794,-2.17c0.282,-0.67 0.582,-1.322 0.899,-1.957c0.318,-0.635 0.644,-1.279 0.979,-1.931c0.335,-0.653 0.644,-1.385 0.926,-2.196c-0.6,-0.564 -1.032,-1.173 -1.296,-1.825c-0.265,-0.653 -0.468,-1.314 -0.609,-1.984c-0.141,-0.671 -0.247,-1.35 -0.317,-2.037c-0.071,-0.688 -0.212,-1.385 -0.423,-2.09c0.423,-0.635 0.934,-1.155 1.534,-1.561c0.6,-0.406 1.261,-0.741 1.984,-1.005c0.723,-0.265 1.508,-0.476 2.354,-0.635c0.847,-0.159 1.746,-0.344 2.699,-0.556c1.693,-0.529 3.209,-0.943 4.55,-1.243c1.34,-0.3 2.645,-0.547 3.915,-0.741c1.27,-0.194 2.592,-0.37 3.968,-0.529c1.376,-0.159 2.963,-0.397 4.762,-0.714c0.035,0.106 0.097,0.159 0.185,0.159l0.344,0c0.106,0.247 0.3,0.37 0.582,0.37c0,-0.106 -0.009,-0.203 -0.027,-0.291c-0.017,-0.088 -0.026,-0.168 -0.026,-0.238c0.07,0 0.167,0.018 0.291,0.053c0.123,0.035 0.229,0.07 0.317,0.106c0.088,0.035 0.168,0.026 0.238,-0.027c0.071,-0.053 0.089,-0.167 0.053,-0.344c0.424,0.741 0.97,1.349 1.64,1.826c0.671,0.476 1.411,0.89 2.223,1.243c0.035,0.317 0.044,0.547 0.026,0.688c-0.018,0.141 -0.044,0.273 -0.079,0.397c-0.036,0.123 -0.053,0.264 -0.053,0.423c0,0.159 0.035,0.379 0.106,0.661c-0.565,0.953 -1.208,1.693 -1.932,2.222c-0.723,0.529 -1.49,0.935 -2.301,1.217c-0.811,0.282 -1.667,0.494 -2.566,0.635c-0.9,0.141 -1.817,0.291 -2.751,0.45c-0.935,0.159 -1.879,0.379 -2.831,0.661c-0.952,0.282 -1.887,0.706 -2.804,1.27c-0.282,-0.106 -0.538,-0.15 -0.767,-0.132c-0.229,0.017 -0.467,0.061 -0.714,0.132c-0.247,0.07 -0.521,0.141 -0.82,0.212c-0.3,0.07 -0.662,0.07 -1.085,0c-0.282,0.246 -0.608,0.423 -0.979,0.529c-0.37,0.105 -0.749,0.211 -1.137,0.317c0.176,0.388 0.255,0.776 0.238,1.164c-0.018,0.388 0.026,0.723 0.132,1.005c1.481,0.141 3.122,0.133 4.92,-0.026c1.799,-0.159 3.563,-0.274 5.291,-0.344c0.035,0.176 0.018,0.3 -0.053,0.37c-0.07,0.071 -0.106,0.194 -0.106,0.371c0.318,0.211 0.618,0.476 0.9,0.793c0.282,0.318 0.573,0.626 0.873,0.926c0.3,0.3 0.608,0.547 0.926,0.741c0.317,0.194 0.688,0.273 1.111,0.238c0.176,0.353 0.3,0.723 0.37,1.111c0.071,0.388 0.018,0.794 -0.159,1.217c-0.705,0.458 -1.393,0.926 -2.063,1.402c-0.67,0.476 -1.367,0.908 -2.09,1.296c-0.723,0.388 -1.508,0.706 -2.354,0.953c-0.847,0.246 -1.764,0.352 -2.751,0.317l-0.45,0c-0.124,0 -0.273,-0.071 -0.45,-0.212c-0.353,0.177 -0.82,0.238 -1.402,0.185c-0.582,-0.052 -1.067,0.009 -1.455,0.186c-0.494,-0.177 -1.067,-0.265 -1.719,-0.265c-0.653,0 -1.226,-0.088 -1.72,-0.264c-0.635,0.917 -1.234,1.878 -1.799,2.883c-0.564,1.005 -1.058,2.072 -1.481,3.201c1.446,0.212 2.645,0.3 3.598,0.265c0.952,-0.036 1.851,-0.106 2.698,-0.212c0.846,-0.106 1.719,-0.212 2.619,-0.318c0.899,-0.105 2.001,-0.141 3.307,-0.105c0.881,-0.424 1.895,-0.715 3.042,-0.873c1.146,-0.159 2.213,-0.397 3.201,-0.715c0.352,0.106 0.652,0.309 0.899,0.609c0.247,0.3 0.485,0.599 0.714,0.899c0.23,0.3 0.468,0.556 0.715,0.767c0.247,0.212 0.564,0.283 0.952,0.212c0.176,0.176 0.291,0.388 0.344,0.635c0.053,0.247 0.106,0.476 0.159,0.688c0.052,0.211 0.132,0.379 0.238,0.502c0.105,0.124 0.299,0.168 0.582,0.133c-0.671,1.375 -1.42,2.433 -2.249,3.174c-0.829,0.741 -1.764,1.314 -2.804,1.72c-1.041,0.405 -2.205,0.705 -3.492,0.899c-1.287,0.194 -2.725,0.432 -4.312,0.714c-0.388,0.071 -0.714,0.062 -0.979,-0.026c-0.264,-0.088 -0.538,-0.132 -0.82,-0.132c-0.987,0.176 -2.16,0.352 -3.518,0.529c-1.358,0.176 -2.725,0.247 -4.101,0.211c-1.375,-0.035 -2.698,-0.211 -3.968,-0.529c-1.269,-0.317 -2.328,-0.882 -3.174,-1.693Z" style="fill-rule:nonzero;"/><path d="M90.96,60.667c-1.552,0.211 -2.963,0.141 -4.233,-0.212c-1.27,-0.353 -2.407,-0.899 -3.413,-1.64c-1.005,-0.741 -1.869,-1.623 -2.592,-2.645c-0.723,-1.023 -1.314,-2.117 -1.772,-3.281c-0.318,-2.398 -0.23,-4.576 0.264,-6.534c0.494,-1.957 1.217,-3.765 2.169,-5.423c0.953,-1.658 2.037,-3.21 3.254,-4.656c1.217,-1.446 2.39,-2.839 3.518,-4.18c0.247,0.106 0.45,0.106 0.609,0c0.159,-0.105 0.3,-0.246 0.423,-0.423c0.124,-0.176 0.265,-0.353 0.423,-0.529c0.159,-0.176 0.344,-0.3 0.556,-0.37c0.141,-0.318 0.326,-0.582 0.555,-0.794l1.482,-1.217c0.229,-0.211 0.432,-0.476 0.608,-0.793c0.353,-0.071 0.662,-0.194 0.926,-0.371c0.265,-0.176 0.512,-0.37 0.741,-0.582c0.229,-0.211 0.467,-0.405 0.714,-0.582c0.247,-0.176 0.547,-0.317 0.9,-0.423l0,-0.688c0.776,-0.352 1.34,-0.74 1.693,-1.164c0.352,-0.423 0.776,-0.97 1.269,-1.64c0.388,-0.035 0.697,-0.053 0.926,-0.053c0.23,0 0.591,-0.035 1.085,-0.106c0.317,-0.599 0.617,-1.04 0.899,-1.322c0.283,-0.282 0.688,-0.6 1.217,-0.953c0.529,0.283 1.094,0.45 1.693,0.503c0.6,0.053 1.147,0.326 1.64,0.82c0.036,0.423 0.159,0.75 0.371,0.979c0.211,0.229 0.441,0.441 0.688,0.635c0.246,0.194 0.493,0.397 0.74,0.608c0.247,0.212 0.406,0.512 0.476,0.9c0.177,0 0.291,-0.036 0.344,-0.106c0.053,-0.071 0.168,-0.088 0.344,-0.053c0.071,0.282 0.141,0.511 0.212,0.688c0.07,0.176 0.15,0.335 0.238,0.476c0.088,0.141 0.176,0.3 0.265,0.476c0.088,0.176 0.167,0.388 0.238,0.635c-0.177,0.423 -0.335,0.873 -0.477,1.349c-0.141,0.476 -0.423,0.803 -0.846,0.979c0,0.282 0.106,0.432 0.317,0.45c0.212,0.017 0.335,0.15 0.371,0.396c0.035,0.318 -0.018,0.582 -0.159,0.794c0.988,1.658 1.887,3.395 2.698,5.211c0.812,1.817 1.729,3.554 2.751,5.212c-0.07,0.494 -0.044,0.979 0.08,1.455c0.123,0.476 0.282,0.943 0.476,1.402c0.194,0.458 0.379,0.917 0.556,1.376c0.176,0.458 0.299,0.917 0.37,1.375c0.07,0.6 0.07,1.243 0,1.931c-0.071,0.688 -0.212,1.349 -0.423,1.984c-0.212,0.635 -0.494,1.226 -0.847,1.773c-0.353,0.546 -0.758,0.961 -1.217,1.243c-0.564,0.705 -1.27,1.279 -2.116,1.72c-0.847,0.44 -1.623,0.961 -2.328,1.56c-0.494,0.282 -1.023,0.485 -1.587,0.609c-0.565,0.123 -1.147,0.255 -1.746,0.397c-0.459,0.282 -1.005,0.555 -1.64,0.82c-0.635,0.264 -1.288,0.502 -1.958,0.714c-0.67,0.212 -1.34,0.379 -2.01,0.502c-0.671,0.124 -1.27,0.15 -1.799,0.08c-1.27,0.458 -2.505,0.776 -3.704,0.952c-1.199,0.177 -2.61,0.088 -4.232,-0.264Zm0.687,-19.259c-0.352,0.811 -0.767,1.543 -1.243,2.196c-0.476,0.652 -0.943,1.314 -1.402,1.984c-0.459,0.67 -0.855,1.384 -1.19,2.143c-0.336,0.758 -0.521,1.649 -0.556,2.672c0.705,0.599 1.543,0.961 2.513,1.084c0.97,0.124 1.967,0.141 2.989,0.053c1.023,-0.088 2.046,-0.22 3.069,-0.397c1.023,-0.176 1.94,-0.264 2.751,-0.264c0,-0.318 0.141,-0.476 0.424,-0.476c1.481,-0.142 2.857,-0.556 4.126,-1.244c1.27,-0.688 2.593,-1.384 3.968,-2.09c0.177,-0.423 0.406,-0.793 0.688,-1.111c0.282,-0.317 0.441,-0.776 0.476,-1.375c-0.176,-0.318 -0.291,-0.582 -0.344,-0.794c-0.052,-0.212 -0.079,-0.529 -0.079,-0.952c-0.917,-1.27 -1.711,-2.654 -2.381,-4.154c-0.67,-1.499 -1.446,-2.918 -2.328,-4.259c-0.07,0.177 -0.211,0.353 -0.423,0.529c-0.212,0.177 -0.441,0.142 -0.688,-0.105c-0.106,0.352 -0.264,0.59 -0.476,0.714c-0.212,0.123 -0.45,0.185 -0.714,0.185c-0.265,0 -0.529,-0.053 -0.794,-0.159c-0.264,-0.105 -0.502,-0.247 -0.714,-0.423c-1.235,0.988 -2.46,1.94 -3.677,2.857c-1.217,0.917 -2.319,1.993 -3.307,3.228c-0.176,0.105 -0.282,0.141 -0.317,0.105c-0.036,-0.035 -0.159,-0.017 -0.371,0.053Z" style="fill-rule:nonzero;"/><path d="M123.445,55.852c-1.023,-0.776 -1.861,-1.746 -2.513,-2.91c-0.653,-1.164 -1.164,-2.398 -1.535,-3.703c-0.37,-1.305 -0.617,-2.655 -0.74,-4.048c-0.124,-1.393 -0.168,-2.725 -0.133,-3.994c0.318,-0.953 0.706,-1.826 1.164,-2.619c0.459,-0.794 0.97,-1.552 1.535,-2.275c0.564,-0.723 1.155,-1.411 1.772,-2.064c0.617,-0.652 1.226,-1.314 1.826,-1.984c0.211,0 0.405,0.053 0.581,0.159c0.142,-0.388 0.353,-0.723 0.635,-1.005c0.283,-0.282 0.582,-0.538 0.9,-0.767c0.317,-0.23 0.635,-0.459 0.952,-0.688c0.318,-0.23 0.582,-0.503 0.794,-0.82c0.882,-0.212 1.666,-0.512 2.354,-0.9c0.688,-0.388 1.349,-0.811 1.984,-1.27c0.635,-0.458 1.288,-0.881 1.958,-1.269c0.67,-0.388 1.446,-0.688 2.328,-0.9c0.317,-0.353 0.714,-0.652 1.19,-0.899c0.476,-0.247 0.953,-0.476 1.429,-0.688c0.476,-0.212 0.934,-0.441 1.375,-0.688c0.441,-0.247 0.803,-0.582 1.085,-1.005c0.212,0.282 0.511,0.379 0.899,0.291c0.388,-0.088 0.741,-0.185 1.058,-0.291c0.212,-0.035 0.388,0 0.53,0.106c0.141,0.106 0.273,0.22 0.396,0.344c0.124,0.123 0.23,0.202 0.318,0.238c0.088,0.035 0.185,-0.071 0.291,-0.318c0.282,0.036 0.361,0.159 0.238,0.371c-0.124,0.211 -0.203,0.352 -0.238,0.423c0.353,-0.071 0.644,-0.009 0.873,0.185c0.229,0.194 0.591,0.326 1.084,0.397c0.177,0.176 0.23,0.317 0.159,0.423c-0.07,0.106 -0.123,0.282 -0.159,0.529c1.27,0.388 2.081,0.997 2.434,1.826c0.353,0.828 0.388,1.693 0.106,2.592c-0.282,0.899 -0.802,1.728 -1.561,2.487c-0.758,0.758 -1.596,1.261 -2.513,1.508c-1.093,0.282 -2.107,0.564 -3.042,0.846c-0.935,0.282 -1.834,0.6 -2.698,0.952c-0.865,0.353 -1.676,0.768 -2.434,1.244c-0.759,0.476 -1.42,1.031 -1.984,1.666c-0.988,0.283 -1.878,0.671 -2.672,1.164c-0.794,0.494 -1.534,1.041 -2.222,1.64c-0.688,0.6 -1.349,1.226 -1.984,1.879c-0.635,0.652 -1.27,1.296 -1.905,1.931c0,0.599 -0.106,1.058 -0.317,1.375c-0.212,0.318 -0.441,0.635 -0.688,0.953c0.07,0.67 0.22,1.243 0.45,1.719c0.229,0.476 0.467,0.961 0.714,1.455c2.822,0.847 5.811,1.367 8.968,1.561c3.156,0.194 6.287,0.309 9.391,0.344c0.317,0.423 0.679,0.82 1.084,1.19c0.406,0.371 0.776,0.75 1.111,1.138c0.336,0.388 0.6,0.838 0.794,1.349c0.194,0.511 0.238,1.12 0.132,1.825c-0.599,0.6 -1.252,1.173 -1.957,1.72c-0.706,0.547 -1.411,1.084 -2.117,1.613c-0.317,0.036 -0.696,0.036 -1.137,0c-0.441,-0.035 -0.899,-0.052 -1.376,-0.052c-0.476,0 -0.952,0.026 -1.428,0.079c-0.476,0.053 -0.926,0.167 -1.349,0.344c-2.222,-0.071 -4.497,-0.344 -6.825,-0.82c-2.328,-0.476 -4.48,-1.05 -6.455,-1.72c-0.388,-0.458 -0.794,-0.89 -1.217,-1.296c-0.423,-0.406 -0.988,-0.697 -1.693,-0.873Z" style="fill-rule:nonzero;"/><path d="M150.269,55.429l0.688,-0.529l0.053,-1.111c0.882,-2.152 1.79,-4.215 2.725,-6.191c0.934,-1.975 1.913,-4.003 2.936,-6.084c0.317,-0.67 0.644,-1.34 0.979,-2.01c0.335,-0.671 0.661,-1.358 0.979,-2.064c-0.036,-0.141 -0.053,-0.291 -0.053,-0.45c0,-0.158 0.035,-0.343 0.105,-0.555c0.494,-0.706 0.891,-1.34 1.191,-1.905c0.3,-0.564 0.591,-1.146 0.873,-1.746c0.317,-0.705 0.661,-1.411 1.032,-2.116c0.37,-0.705 0.837,-1.393 1.402,-2.063l0.37,-0.53l0.582,0.053c0.141,-0.07 0.291,-0.132 0.45,-0.185c0.158,-0.053 0.361,-0.079 0.608,-0.079l0.952,0.159c1.164,-0.529 2.196,-1.297 3.096,-2.302c0.899,-1.005 1.807,-2.213 2.724,-3.624l0.635,-0.9l0.847,0.53c0.176,0.105 0.458,0.211 0.846,0.317c0.388,0.106 0.794,0.229 1.217,0.37c0.741,0.177 1.464,0.38 2.169,0.609c0.706,0.229 1.252,0.538 1.64,0.926l0.265,0.476c0.071,0.388 0.132,0.741 0.185,1.058c0.053,0.317 0.115,0.635 0.185,0.952c0.141,0.741 0.265,1.473 0.371,2.196c0.106,0.723 0.176,1.526 0.211,2.407c0.177,0.706 0.344,1.42 0.503,2.143c0.159,0.723 0.309,1.437 0.45,2.143c0.176,1.023 0.37,2.002 0.582,2.936c0.211,0.935 0.493,1.826 0.846,2.672c0.353,0 0.565,0.018 0.635,0.053c0.423,-0.176 0.917,-0.282 1.482,-0.317l0.687,-0.053l0.212,0.635c0.07,0.105 0.159,0.211 0.264,0.317c0.106,0.106 0.23,0.212 0.371,0.317c0.564,0.036 0.979,0.15 1.243,0.344c0.265,0.194 0.485,0.379 0.662,0.556c0.07,0.07 0.158,0.15 0.264,0.238c0.106,0.088 0.194,0.15 0.265,0.185l0.952,0.37l-0.529,1.006c-0.388,0.74 -0.979,1.463 -1.773,2.169c-0.793,0.705 -1.684,1.287 -2.671,1.746c0.07,0.247 0.114,0.476 0.132,0.688c0.018,0.211 0.062,0.458 0.132,0.74c0.141,0.706 0.256,1.438 0.344,2.196c0.088,0.758 0.079,1.543 -0.026,2.354c-0.353,0.918 -0.768,1.738 -1.244,2.461c-0.476,0.723 -1.04,1.375 -1.693,1.957c-0.652,0.582 -1.384,1.058 -2.195,1.429c-0.812,0.37 -1.658,0.573 -2.54,0.608c-0.494,-0.106 -0.855,-0.229 -1.085,-0.37c-0.229,-0.141 -0.432,-0.282 -0.608,-0.423c-0.282,-0.212 -0.512,-0.353 -0.688,-0.424l-0.688,-0.317l0.212,-0.794c0.106,-0.282 0.097,-0.529 -0.026,-0.74c-0.124,-0.212 -0.38,-0.494 -0.768,-0.847c-0.141,-0.106 -0.264,-0.22 -0.37,-0.344c-0.106,-0.123 -0.229,-0.256 -0.37,-0.397l-1.059,-1.217l1.746,-0.476c1.059,-0.282 1.764,-0.643 2.117,-1.084c0.352,-0.441 0.494,-1.226 0.423,-2.355c-0.882,-0.176 -1.605,-0.203 -2.169,-0.079c-0.565,0.123 -1.129,0.256 -1.693,0.397c-0.812,0.211 -1.605,0.397 -2.381,0.555c-0.776,0.159 -1.623,0.238 -2.54,0.238c-0.599,0 -1.234,-0.053 -1.904,-0.158l-0.582,-0.053l-0.159,-0.582c0,-0.071 -0.044,-0.15 -0.132,-0.238c-0.089,-0.089 -0.168,-0.168 -0.238,-0.238c-0.177,-0.212 -0.388,-0.494 -0.635,-0.847c-0.247,-0.353 -0.3,-0.794 -0.159,-1.323c-0.247,-0.388 -0.388,-0.793 -0.423,-1.217c-0.141,0.283 -0.256,0.556 -0.344,0.821c-0.088,0.264 -0.168,0.52 -0.238,0.767l-0.212,0.687l-0.688,0.106c-0.07,0.071 -0.132,0.177 -0.185,0.318c-0.053,0.141 -0.062,0.247 -0.026,0.317l0.211,0.582l-0.529,0.476c-0.07,0.106 -0.159,0.194 -0.264,0.265c-0.106,0.07 -0.194,0.141 -0.265,0.212c-0.07,0.388 -0.167,0.758 -0.291,1.111c-0.123,0.352 -0.256,0.705 -0.397,1.058c-0.176,0.564 -0.344,1.111 -0.502,1.64c-0.159,0.529 -0.238,1.058 -0.238,1.587l-0.212,0.688c-0.176,0.282 -0.397,0.494 -0.661,0.635c-0.265,0.141 -0.521,0.264 -0.768,0.37c-0.352,0.141 -0.599,0.282 -0.74,0.423l-0.159,0.688l-0.794,0.106c-0.458,0.106 -0.784,0.176 -0.978,0.212c-0.194,0.035 -0.415,0.053 -0.662,0.053l-0.688,-0.053c-0.423,-0.424 -0.767,-0.75 -1.031,-0.979c-0.265,-0.229 -0.573,-0.432 -0.926,-0.609l-0.318,-0.423c-0.141,-0.282 -0.229,-0.538 -0.264,-0.767c-0.035,-0.229 -0.088,-0.467 -0.159,-0.714c-0.07,-0.459 -0.176,-0.776 -0.317,-0.953l-0.794,-0.793Zm16.878,-13.756c-0.494,0.705 -0.97,1.446 -1.429,2.222c0.247,-0.035 0.485,-0.053 0.714,-0.053c0.23,0 0.468,-0.018 0.715,-0.053c1.234,-0.07 2.381,-0.159 3.439,-0.264c1.058,-0.106 2.204,-0.283 3.439,-0.53c-0.282,-1.305 -0.591,-2.636 -0.926,-3.994c-0.335,-1.358 -0.697,-2.725 -1.085,-4.1l-0.264,0.529c-0.882,0.952 -1.729,1.975 -2.54,3.068c-0.811,1.094 -1.481,2.134 -2.01,3.122l-0.053,0.053Z" style="fill-rule:nonzero;"/><path d="M194.606,55.852c-1.023,-0.776 -1.861,-1.746 -2.513,-2.91c-0.653,-1.164 -1.164,-2.398 -1.535,-3.703c-0.37,-1.305 -0.617,-2.655 -0.74,-4.048c-0.124,-1.393 -0.168,-2.725 -0.133,-3.994c0.318,-0.953 0.706,-1.826 1.164,-2.619c0.459,-0.794 0.97,-1.552 1.535,-2.275c0.564,-0.723 1.155,-1.411 1.772,-2.064c0.617,-0.652 1.226,-1.314 1.825,-1.984c0.212,0 0.406,0.053 0.582,0.159c0.141,-0.388 0.353,-0.723 0.635,-1.005c0.282,-0.282 0.582,-0.538 0.9,-0.767c0.317,-0.23 0.635,-0.459 0.952,-0.688c0.318,-0.23 0.582,-0.503 0.794,-0.82c0.881,-0.212 1.666,-0.512 2.354,-0.9c0.688,-0.388 1.349,-0.811 1.984,-1.27c0.635,-0.458 1.288,-0.881 1.958,-1.269c0.67,-0.388 1.446,-0.688 2.328,-0.9c0.317,-0.353 0.714,-0.652 1.19,-0.899c0.476,-0.247 0.952,-0.476 1.429,-0.688c0.476,-0.212 0.934,-0.441 1.375,-0.688c0.441,-0.247 0.803,-0.582 1.085,-1.005c0.211,0.282 0.511,0.379 0.899,0.291c0.388,-0.088 0.741,-0.185 1.058,-0.291c0.212,-0.035 0.388,0 0.529,0.106c0.142,0.106 0.274,0.22 0.397,0.344c0.124,0.123 0.23,0.202 0.318,0.238c0.088,0.035 0.185,-0.071 0.291,-0.318c0.282,0.036 0.361,0.159 0.238,0.371c-0.124,0.211 -0.203,0.352 -0.238,0.423c0.352,-0.071 0.643,-0.009 0.873,0.185c0.229,0.194 0.59,0.326 1.084,0.397c0.177,0.176 0.23,0.317 0.159,0.423c-0.071,0.106 -0.123,0.282 -0.159,0.529c1.27,0.388 2.081,0.997 2.434,1.826c0.353,0.828 0.388,1.693 0.106,2.592c-0.282,0.899 -0.803,1.728 -1.561,2.487c-0.758,0.758 -1.596,1.261 -2.513,1.508c-1.093,0.282 -2.108,0.564 -3.042,0.846c-0.935,0.282 -1.834,0.6 -2.699,0.952c-0.864,0.353 -1.675,0.768 -2.433,1.244c-0.759,0.476 -1.42,1.031 -1.984,1.666c-0.988,0.283 -1.879,0.671 -2.672,1.164c-0.794,0.494 -1.534,1.041 -2.222,1.64c-0.688,0.6 -1.349,1.226 -1.984,1.879c-0.635,0.652 -1.27,1.296 -1.905,1.931c0,0.599 -0.106,1.058 -0.317,1.375c-0.212,0.318 -0.441,0.635 -0.688,0.953c0.07,0.67 0.22,1.243 0.449,1.719c0.23,0.476 0.468,0.961 0.715,1.455c2.821,0.847 5.811,1.367 8.968,1.561c3.156,0.194 6.287,0.309 9.391,0.344c0.317,0.423 0.679,0.82 1.084,1.19c0.406,0.371 0.776,0.75 1.111,1.138c0.335,0.388 0.6,0.838 0.794,1.349c0.194,0.511 0.238,1.12 0.132,1.825c-0.599,0.6 -1.252,1.173 -1.957,1.72c-0.706,0.547 -1.411,1.084 -2.117,1.613c-0.317,0.036 -0.696,0.036 -1.137,0c-0.441,-0.035 -0.9,-0.052 -1.376,-0.052c-0.476,0 -0.952,0.026 -1.428,0.079c-0.476,0.053 -0.926,0.167 -1.349,0.344c-2.223,-0.071 -4.498,-0.344 -6.826,-0.82c-2.327,-0.476 -4.479,-1.05 -6.454,-1.72c-0.388,-0.458 -0.794,-0.89 -1.217,-1.296c-0.423,-0.406 -0.988,-0.697 -1.693,-0.873Z" style="fill-rule:nonzero;"/><path d="M223.599,58.656c-0.106,0.035 -0.176,0 -0.211,-0.106c-0.036,-0.105 -0.044,-0.211 -0.027,-0.317c0.018,-0.106 0.071,-0.194 0.159,-0.265c0.088,-0.07 0.203,-0.07 0.344,0c-0.459,-0.564 -0.75,-1.075 -0.873,-1.534c-0.124,-0.458 -0.362,-1.023 -0.714,-1.693c0.105,-0.106 0.176,-0.256 0.211,-0.45c0.035,-0.194 0.08,-0.379 0.132,-0.555c0.053,-0.177 0.124,-0.309 0.212,-0.397c0.088,-0.088 0.203,-0.062 0.344,0.079c-0.071,-0.388 -0.071,-0.705 0,-0.952c0.071,-0.247 0.15,-0.476 0.238,-0.688c0.088,-0.211 0.15,-0.423 0.185,-0.635c0.036,-0.211 -0.017,-0.458 -0.158,-0.74c0.67,-0.918 1.111,-1.914 1.322,-2.99c0.212,-1.076 0.335,-2.054 0.371,-2.936c0.317,-0.318 0.59,-0.741 0.82,-1.27c0.229,-0.529 0.396,-1.076 0.502,-1.64c0.106,-0.564 0.159,-1.12 0.159,-1.667c0,-0.546 -0.071,-0.978 -0.212,-1.296c0.036,-0.141 0.115,-0.22 0.238,-0.238c0.124,-0.018 0.274,-0.009 0.45,0.027c0.247,-1.411 0.415,-2.981 0.503,-4.709c0.088,-1.729 0.264,-3.395 0.529,-5c0.264,-1.605 0.696,-3.016 1.296,-4.233c0.6,-1.217 1.552,-2.001 2.857,-2.354c0.247,0.882 0.573,1.658 0.979,2.328c0.406,0.67 0.846,1.323 1.323,1.957c0.476,0.635 0.961,1.27 1.455,1.905c0.493,0.635 0.952,1.34 1.375,2.116c-0.035,0.812 -0.114,1.746 -0.238,2.805c-0.123,1.058 -0.282,2.133 -0.476,3.227c-0.194,1.093 -0.388,2.151 -0.582,3.174c-0.194,1.023 -0.379,1.887 -0.556,2.593c0.036,0.176 0.159,0.291 0.371,0.344c0.211,0.053 0.247,0.255 0.106,0.608c1.022,-0.247 2.089,-0.485 3.2,-0.714c1.112,-0.229 2.205,-0.459 3.281,-0.688c1.076,-0.229 2.134,-0.502 3.174,-0.82c1.041,-0.317 2.02,-0.705 2.937,-1.164c0.211,-1.693 0.476,-3.368 0.793,-5.026c0.318,-1.658 0.353,-3.333 0.106,-5.026c0.212,-0.177 0.388,-0.388 0.529,-0.635c0.141,-0.247 0.353,-0.406 0.635,-0.476c-0.212,-0.812 -0.3,-1.667 -0.265,-2.566c0.036,-0.9 0.186,-1.738 0.45,-2.514c0.265,-0.776 0.662,-1.455 1.191,-2.037c0.529,-0.582 1.181,-0.961 1.957,-1.137c0.459,0.67 0.864,1.393 1.217,2.169c0.353,0.776 0.706,1.561 1.058,2.355c0.353,0.793 0.732,1.543 1.138,2.248c0.405,0.706 0.926,1.305 1.561,1.799c0.105,1.235 0.194,2.495 0.264,3.783c0.071,1.287 0.124,2.619 0.159,3.994c-0.318,1.588 -0.679,3.131 -1.085,4.63c-0.405,1.499 -0.696,3.095 -0.873,4.788c-0.282,0.317 -0.511,0.697 -0.688,1.138c-0.176,0.44 -0.343,0.881 -0.502,1.322c-0.159,0.441 -0.344,0.873 -0.556,1.296c-0.211,0.424 -0.476,0.776 -0.793,1.059c0.141,0.493 0.167,0.961 0.079,1.402c-0.088,0.441 0.026,0.961 0.344,1.56c0.07,1.094 -0.062,2.002 -0.397,2.725c-0.335,0.723 -0.794,1.341 -1.376,1.852c-0.581,0.511 -1.252,0.917 -2.01,1.217c-0.758,0.3 -1.508,0.573 -2.249,0.82c-0.352,-0.212 -0.679,-0.432 -0.978,-0.661c-0.3,-0.23 -0.662,-0.397 -1.085,-0.503l0.265,-0.476c-0.706,-0.706 -1.314,-1.455 -1.826,-2.249c-0.511,-0.793 -0.749,-1.702 -0.714,-2.725c0,-0.035 0.035,-0.273 0.106,-0.714c0.07,-0.441 0.15,-0.908 0.238,-1.402l0.397,-2.116c-0.988,0.106 -2.011,0.335 -3.069,0.688c-1.058,0.352 -2.09,0.749 -3.095,1.19c-1.005,0.441 -1.94,0.9 -2.804,1.376c-0.864,0.476 -1.561,0.873 -2.09,1.19c0,0.106 -0.088,0.406 -0.265,0.9c-0.176,0.493 -0.388,1.014 -0.634,1.56c-0.247,0.547 -0.521,1.032 -0.821,1.455c-0.299,0.424 -0.608,0.618 -0.925,0.582c0.07,0.177 0.141,0.309 0.211,0.397c0.071,0.088 0.071,0.256 0,0.503c-0.599,0.176 -1.137,0.405 -1.613,0.687c-0.477,0.283 -0.962,0.521 -1.455,0.715c-0.494,0.194 -1.032,0.282 -1.614,0.264c-0.582,-0.017 -1.279,-0.238 -2.09,-0.661c0,-0.247 -0.106,-0.467 -0.317,-0.661c-0.212,-0.194 -0.432,-0.362 -0.662,-0.503c-0.229,-0.141 -0.432,-0.265 -0.608,-0.37c-0.177,-0.106 -0.265,-0.212 -0.265,-0.318Z" style="fill-rule:nonzero;"/><path d="M261.957,55.905c-0.176,0.035 -0.335,-0.097 -0.476,-0.397c-0.141,-0.3 -0.3,-0.591 -0.476,-0.873l0.582,0c-0.247,-0.776 -0.309,-1.49 -0.185,-2.143c0.123,-0.652 0.273,-1.287 0.45,-1.904c0.176,-0.618 0.326,-1.217 0.449,-1.799c0.124,-0.582 0.062,-1.191 -0.185,-1.825c0.176,0.105 0.309,0.061 0.397,-0.133c0.088,-0.194 0.159,-0.441 0.212,-0.74c0.052,-0.3 0.07,-0.618 0.052,-0.953c-0.017,-0.335 -0.044,-0.608 -0.079,-0.82c0.459,-1.093 0.82,-2.222 1.085,-3.386c0.264,-1.164 0.502,-2.319 0.714,-3.465c0.212,-1.147 0.45,-2.258 0.714,-3.334c0.265,-1.075 0.609,-2.089 1.032,-3.042c0.494,-0.07 1.014,-0.009 1.561,0.185c0.546,0.194 0.908,0.432 1.084,0.715c1.094,-0.847 2.064,-1.87 2.91,-3.069c0.847,-1.199 1.702,-2.372 2.566,-3.518c0.864,-1.147 1.843,-2.161 2.937,-3.043c1.093,-0.881 2.451,-1.41 4.074,-1.587c0.846,0.6 1.798,1.244 2.857,1.931c1.058,0.688 1.922,1.543 2.592,2.566l1.64,1.111l0,0.794c0.494,0.459 0.908,0.996 1.243,1.614c0.336,0.617 0.635,1.27 0.9,1.957c0.264,0.688 0.52,1.385 0.767,2.09c0.247,0.706 0.529,1.358 0.847,1.958c-0.071,0.211 -0.097,0.397 -0.08,0.555c0.018,0.159 0.053,0.318 0.106,0.476c0.053,0.159 0.097,0.336 0.132,0.53c0.036,0.194 0.053,0.432 0.053,0.714c-0.141,1.869 -0.749,3.377 -1.825,4.523c-1.076,1.147 -2.381,2.081 -3.915,2.805c-1.535,0.723 -3.166,1.34 -4.894,1.851c-1.729,0.512 -3.298,1.067 -4.709,1.667c0,0.141 0.079,0.212 0.238,0.212c0.159,0 0.203,0.105 0.132,0.317c1.058,0.635 1.879,1.146 2.461,1.534c0.582,0.388 1.128,0.715 1.64,0.979c0.511,0.265 1.075,0.485 1.693,0.661c0.617,0.177 1.472,0.388 2.566,0.635c1.093,0.247 1.949,0.45 2.566,0.609c0.617,0.158 1.173,0.282 1.666,0.37c0.494,0.088 1.023,0.168 1.588,0.238c0.564,0.071 1.322,0.159 2.275,0.265c0.388,0.388 0.705,0.846 0.952,1.375c0.247,0.529 0.423,1.059 0.529,1.588c0.106,0.529 0.132,1.031 0.079,1.507c-0.052,0.477 -0.202,0.856 -0.449,1.138c0.035,0.141 0.132,0.203 0.291,0.185c0.158,-0.017 0.326,-0.009 0.502,0.027c-0.247,0.176 -0.458,0.388 -0.635,0.634c-0.176,0.247 -0.352,0.494 -0.529,0.741c-0.176,0.247 -0.379,0.476 -0.608,0.688c-0.229,0.212 -0.52,0.335 -0.873,0.37c-1.27,0.494 -2.892,0.512 -4.868,0.053c-1.975,-0.458 -4.497,-1.27 -7.565,-2.433c-1.517,-0.565 -2.752,-1.076 -3.704,-1.535c-0.952,-0.458 -1.781,-0.908 -2.487,-1.349c-0.705,-0.441 -1.358,-0.917 -1.957,-1.428c-0.6,-0.512 -1.288,-1.12 -2.064,-1.826l-0.37,0.423c-0.176,1.411 -0.45,2.558 -0.82,3.439c-0.37,0.882 -0.908,1.782 -1.614,2.699c-0.564,-0.106 -0.943,-0.053 -1.137,0.158c-0.194,0.212 -0.432,0.406 -0.714,0.582c-0.353,0.071 -0.618,0.062 -0.794,-0.026c-0.176,-0.088 -0.335,-0.185 -0.476,-0.291c-0.141,-0.106 -0.3,-0.212 -0.476,-0.317c-0.177,-0.106 -0.459,-0.142 -0.847,-0.106c-0.106,-0.318 -0.212,-0.626 -0.317,-0.926c-0.106,-0.3 -0.388,-0.432 -0.847,-0.397c0.106,-0.317 0.141,-0.591 0.106,-0.82c-0.035,-0.229 -0.088,-0.441 -0.159,-0.635c-0.07,-0.194 -0.132,-0.397 -0.185,-0.608c-0.053,-0.212 -0.026,-0.459 0.079,-0.741Zm17.672,-24.179c-0.459,0.67 -0.97,1.279 -1.535,1.825c-0.564,0.547 -1.12,1.112 -1.666,1.693c-0.547,0.582 -1.032,1.217 -1.455,1.905c-0.424,0.688 -0.723,1.508 -0.9,2.46c1.482,-0.176 3.034,-0.59 4.656,-1.243c1.623,-0.652 3.157,-1.279 4.603,-1.878c-0.176,-1.305 -0.635,-2.355 -1.376,-3.148c-0.74,-0.794 -1.516,-1.332 -2.327,-1.614Z" style="fill-rule:nonzero;"/></svg>